<?xml version="1.0" encoding="utf-8"?>
<!-- Generator: Adobe Illustrator 24.1.2, SVG Export Plug-In . SVG Version: 6.00 Build 0)  -->
<svg version="1.1" id="Camada_1" xmlns="http://www.w3.org/2000/svg" xmlns:xlink="http://www.w3.org/1999/xlink" x="0px" y="0px"
	 viewBox="0 0 203.18 74.05" style="enable-background:new 0 0 203.18 74.05;" xml:space="preserve">
<style type="text/css">
	.st0{fill:#FFFFFF;}
	.st1{clip-path:url(#SVGID_2_);}
	.st2{fill:#E5E4E5;}
	.st3{fill:none;}
</style>
<g>
	<g>
		<path class="st0" d="M169.78,13.81c-5.11,0.56-5.18,6.34-5.18,6.62v0c0,8.88,6.82,16.17,15.51,16.92
			c-4.78-1.13-5.26-5.65-4.65-10.13c0.25-1.84,0.85-4.41,0.61-7.17c-0.32-3.65-2.82-6.28-5.76-6.28
			C170.13,13.78,169.95,13.79,169.78,13.81"/>
	</g>
	<g>
		<defs>
			<path id="SVGID_1_" d="M169.77,13.81c-5.1,0.56-5.17,6.34-5.17,6.62v0c0,8.88,6.82,16.17,15.51,16.92
				c-4.78-1.13-5.26-5.65-4.65-10.14c0.25-1.83,0.85-4.4,0.61-7.17c-0.32-3.66-2.82-6.28-5.76-6.28
				C170.13,13.78,169.96,13.79,169.77,13.81"/>
		</defs>
		<clipPath id="SVGID_2_">
			<use xlink:href="#SVGID_1_"  style="overflow:visible;"/>
		</clipPath>
		<g class="st1">
			<defs>
				<rect id="SVGID_3_" x="5.11" y="2.67" width="192.95" height="68.7"/>
			</defs>
			<clipPath id="SVGID_4_">
				<use xlink:href="#SVGID_3_"  style="overflow:visible;"/>
			</clipPath>
		</g>
	</g>
	<path class="st2" d="M187.2,27.67c-0.91-0.78-2.1-1.34-3.46-1.6l0,0c0,0-0.01,0-0.01,0c-0.22-0.04-0.45-0.07-0.68-0.1l0,0
		l-1.59-0.17c-3.67-0.56-4.69-1.44-4.69-1.44v0c-0.01,0.04-0.92,3.81-0.5,7.22c0.07,0.61,0.18,1.19,0.36,1.74
		c0.02,0.06,0.03,0.11,0.05,0.16c0.01,0.04,0.02,0.07,0.04,0.11c0.33,0.95,0.83,1.79,1.57,2.39l0,0c0.07,0.06,0.14,0.12,0.21,0.18
		c0.67,0.54,1.51,0.94,2.55,1.19v0v0c0.49,0.04,0.98,0.06,1.48,0.06c0.11,0,1.45-0.01,2.9-0.55c1.64-0.61,3.42-1.9,3.72-4.62
		c0.02-0.2,0.03-0.4,0.03-0.59C189.15,30.12,188.42,28.71,187.2,27.67z"/>
	<g>
		<path class="st0" d="M192.89,26.29c5.11-0.56,5.18-6.34,5.18-6.62v0c0-8.89-6.82-16.17-15.51-16.92
			c4.78,1.13,5.26,5.65,4.65,10.13c-0.25,1.84-0.85,4.41-0.61,7.17c0.32,3.65,2.82,6.28,5.76,6.28
			C192.53,26.32,192.71,26.31,192.89,26.29"/>
	</g>
	<path class="st3" d="M187.21,12.87c-0.25,1.84-0.85,4.41-0.61,7.17c0.32,3.65,2.82,6.28,5.76,6.28c0.18,0,0.35-0.01,0.54-0.03
		c5.1-0.55,5.18-6.34,5.18-6.62v0c0-8.88-6.82-16.17-15.51-16.92C187.34,3.86,187.82,8.38,187.21,12.87"/>
	<path class="st2" d="M185.9,15.73c0.01-0.04,0.87-3.6,0.54-6.92c0-0.05-0.01-0.1-0.01-0.14c0-0.03-0.01-0.07-0.01-0.1
		c-0.03-0.29-0.07-0.57-0.13-0.85c-0.06-0.33-0.15-0.66-0.24-0.97c-0.01-0.03-0.02-0.06-0.03-0.1c-0.02-0.06-0.04-0.12-0.06-0.18
		c-0.33-0.94-0.82-1.77-1.55-2.37l0,0c-0.7-0.62-1.6-1.1-2.76-1.37v0c-0.09-0.01-0.18-0.01-0.28-0.02c-0.4-0.03-0.8-0.05-1.21-0.05
		c-0.25,0-6.07,0.05-6.63,5.17c-0.13,1.19,0.17,2.32,0.81,3.3c0.37,0.57,0.86,1.08,1.44,1.52c0.87,0.65,1.94,1.13,3.16,1.36l0,0
		c0.01,0,0.01,0,0.02,0c0.22,0.04,0.45,0.07,0.68,0.1l0,0l1.59,0.17C184.88,14.86,185.9,15.73,185.9,15.73L185.9,15.73z"/>
	<path class="st0" d="M24.6,63.53c-0.43-1.43-0.79-2.51-1.33-3.76c-0.54-1.4-0.82-2.22-1.36-3.4h-9.49l-1.4,3.8
		c-0.43,0.89-0.93,2.26-1.25,3.37H5.11l0.86-2.04c1.11-2.58,1.94-4.59,2.94-7.02c2.08-4.94,4.37-10.53,5.3-13.43
		c0.4-1,0.65-2.01,0.76-2.97c0-0.18,0-0.32-0.04-0.47h2.67c0.57,0,1.08,0.31,1.32,0.83c1.08,2.32,4,8.94,6.36,14.54l4.55,10.57H24.6
		z M20.44,52.78l-1.29-3.3l-1.4-3.76l-0.82-2.29c-0.86,3.12-2.08,6.38-3.22,9.35H20.44z"/>
	<path class="st0" d="M43.66,46.94c2.44,0.97,4.51,4.23,4.37,7.85c0,2.11-0.65,4.26-2.08,5.98c-2.36,2.58-4.69,2.76-6.84,2.86
		c-0.75,0-1.72-0.11-2.87-0.36v8.1c-1.61-0.11-3.33-0.4-4.19-0.72v-24.5c0.54,0.03,1.58,0.11,3.08,0.14c1,0,1.79-0.04,2.4-0.11
		c0.61-0.07,1.29-0.11,2.11-0.11C41.05,46.08,42.12,46.26,43.66,46.94 M36.25,49.7v10.07c0.57,0.39,1.51,0.57,2.83,0.54
		c2.62,0,4.58-2.11,4.58-5.48c0-1.08-0.14-1.97-0.39-2.65c-0.47-1.4-1.75-2.72-3.87-2.72C38.33,49.49,37.29,49.59,36.25,49.7"/>
	<path class="st0" d="M99.42,49.52c2.04,1.25,3.33,3.87,3.33,6.09c0,1.33-0.21,2.36-0.93,3.83c-1,2.29-4.48,4.23-7.88,4.08h-8.38
		V38.24c3.62-0.57,5.55-0.68,7.23-0.68c2.19,0,4.3,0.43,5.91,1.58c2.44,1.83,2.58,3.9,2.65,5.84
		C101.32,46.65,100.39,48.41,99.42,49.52 M90,48.63h1.29c1.47,0,3.15-0.18,4.33-1.04c0.76-0.64,1.29-1.27,1.29-2.54
		c-0.03-1.28-0.14-1.97-1.06-2.75c-1.18-0.96-2.06-1.08-3.46-1.08c-0.83-0.04-1.61,0.04-2.4,0.25V48.63z M93.98,59.59
		c0.75,0,1.4-0.11,1.94-0.36c1.11-0.47,2.43-1.65,2.43-3.51c0.04-0.82-0.21-1.61-0.71-2.36c-0.47-0.79-1.36-1.22-2.65-1.25
		c-1.11,0-2.22,0-3.3,0.04H90v7.45H93.98z"/>
	<path class="st0" d="M116.84,46.73c-0.54,1.18-0.93,2.4-1.18,3.58c-1.03-0.32-2.14-0.54-3.29-0.61c-1.65,0.03-2.65,0.07-2.97,0.11
		v13.72h-4.16V46.19c0.54,0.04,1.65,0.11,3.33,0.14c0.83-0.03,1.61-0.07,2.36-0.14c0.76-0.11,1.79-0.14,3.12-0.18
		C114.62,46.01,115.55,46.26,116.84,46.73"/>
	<path class="st0" d="M131.52,63.56c-0.57-0.08-1.58-0.15-3.01-0.18c-1.61,0-3.22,0.25-5.19,0.25c-3.44,0-5.8-2.29-5.8-5.05
		c0-3.83,3.8-5.95,7.38-5.95c1.47,0.03,2.4,0.03,2.72,0.07v-0.72c0-1.32-0.68-2.69-2.29-2.72c-0.57,0-1.18,0.07-1.83,0.18
		c-0.61,0.11-1.39,0.32-2.29,0.57c-0.9,0.25-1.58,0.5-2.04,0.68l-0.75-3.4c1.9-0.68,5.16-1.4,7.63-1.4c3.47,0,5.48,2.19,5.48,6.2
		V63.56z M127.05,60.12l0.47-0.04c-0.04-0.32-0.04-0.64-0.04-0.93v-3.4c-0.57-0.11-1.18-0.14-1.86-0.14c-2.44,0-3.87,1.07-3.87,2.83
		c0.04,1.33,1.25,1.9,2.79,1.9C125.33,60.3,126.15,60.23,127.05,60.12"/>
	<path class="st0" d="M65.37,62.45l-0.9-3.3c-1.4,0.57-3.4,1.08-4.98,1.08c-3.51,0-5.37-1.68-5.66-4.34l12.52-0.03l-0.02-2.01
		c0.02-2.77-1.54-5.98-3.9-7.05c-1.47-0.72-2.4-0.93-3.98-0.93c-1.75,0.11-4.09,0.43-6.38,2.62c-1.58,1.61-2.47,3.83-2.47,6.27
		c-0.11,3.15,2.01,6.27,3.37,7.2c1.39,1.11,3.29,1.83,5.69,1.83c0.54,0,1.05-0.02,1.55-0.07c1.91-0.14,4.9-0.54,5.36-0.48
		L65.37,62.45L65.37,62.45z M58.44,49.16c1.33,0,2.66,0.76,3.28,1.9c0.43,0.68,0.64,1.32,0.61,1.93h-8.38
		C54.56,50.59,55.79,49.16,58.44,49.16z"/>
	<path class="st0" d="M147.22,47.05l-1.83,3.44c-1.32-0.76-2.9-1.36-4.44-1.4c-0.54-0.04-1.15,0.07-1.76,0.28
		c-0.47,0.22-0.96,0.47-0.99,1.16c-0.02,0.95,1.47,1.39,2.5,1.77c4.8,1.83,6.88,3.33,6.88,5.8c0,3.15-2.44,5.73-6.41,5.73
		c-1.9,0-3.8-0.43-5.05-0.86c-1.18-0.4-1.97-0.65-2.33-0.68c0.11-0.47,0.36-1.93,0.83-3.83c0.11,0.11,0.68,0.36,1.68,0.79
		c2.04,0.86,3.4,1.29,4.58,1.29c1.72-0.04,2.44-0.9,2.44-1.75c-0.04-0.72-0.36-1.25-1-1.58c-1.29-0.72-2.33-1.11-3.65-1.65
		c-3.05-1.25-4.51-2.36-4.51-5.16c0-2.15,2.29-4.69,6.3-4.69c1.86,0,3.46,0.47,4.71,0.86C145.92,46.84,146.65,46.9,147.22,47.05"/>
	<path class="st0" d="M152.06,42.11c-1.32,0-2.4-0.68-2.44-2.29c0.04-1.72,1.22-2.36,2.55-2.33c1.32,0,2.29,0.9,2.33,2.33
		C154.46,41.5,153.46,42.11,152.06,42.11 M150.23,63.53V46.3c1.04-0.07,1.65-0.14,1.86-0.21l2.15-0.36v17.8H150.23z"/>
	<path class="st0" d="M162.63,58.3c0,2.01,0.64,2.69,1.9,3.4l-1.65,2.26c-4.37-0.86-4.37-3.15-4.37-7.17V44.4
		c0-1.86-0.07-4.3-0.25-5.88c1.15-0.43,2.44-0.82,4.01-1.15c0.32,2.26,0.36,4.23,0.36,6.7V58.3z"/>
	<path class="st0" d="M77.69,54.78l2.47-3.26c1.21-1.6,2.15-2.89,3.01-4.48c-1.34-0.45-2.5-0.74-3.58-0.95
		c-0.5,0.86-1.32,2.05-2.09,3.1c0,0,0,0,0,0l-2.02,2.66L73.7,49.5c-0.89-1.17-1.73-2.34-2.35-3.41c-1.07,0.21-2.24,0.5-3.58,0.95
		c0.86,1.6,1.8,2.88,3.01,4.48l2.48,3.26l-2.48,3.26c-1.21,1.6-2.14,2.89-3.01,4.48c1.34,0.46,2.51,0.74,3.58,0.95
		c0.62-1.08,1.48-2.25,2.37-3.43l1.76-2.33l2.02,2.66c0,0,0,0,0,0c0.77,1.05,1.59,2.24,2.09,3.1c1.07-0.21,2.23-0.5,3.58-0.95
		c-0.86-1.59-1.8-2.88-3.01-4.48L77.69,54.78z"/>
</g>
</svg>
