<?xml version="1.0" encoding="utf-8"?>
<!-- Generator: Adobe Illustrator 24.1.2, SVG Export Plug-In . SVG Version: 6.00 Build 0)  -->
<svg version="1.1" id="Camada_1" xmlns="http://www.w3.org/2000/svg" xmlns:xlink="http://www.w3.org/1999/xlink" x="0px" y="0px"
	 viewBox="0 0 488.7 201.2" style="enable-background:new 0 0 488.7 201.2;" xml:space="preserve">
<style type="text/css">
	.st0{fill:#CACCCB;}
	.st1{fill:#FFFFFF;}
</style>
<g>
	<path class="st0" d="M430.3,78.2c-7.9-0.7-15.3,0.7-21.1,1.6l-0.4,2.6c-2,14.8-0.5,29.8,15.4,33.5h0h0c1.6,0.1,3.2,0.2,4.9,0.2
		c0.8,0,20-0.2,21.9-17.1C452.1,88.5,443.1,79.3,430.3,78.2"/>
	<path class="st1" d="M408.9,82.4c0.8-6.1,2.8-14.5,2-23.7c-1.1-12.8-10.3-21.8-20.8-20.7C373.2,39.9,373,59.1,373,59.9
		c0,29.3,22.5,53.4,51.2,55.9C408.4,112.1,406.8,97.2,408.9,82.4"/>
	<path class="st0" d="M427.7,41.9c7.9,0.7,15.3-0.7,21.1-1.6l0.4-2.6c2-14.8,0.5-29.7-15.4-33.5c-1.6-0.1-3.2-0.2-4.9-0.2
		c-0.8,0-20,0.2-21.9,17.1C405.9,31.6,414.9,40.8,427.7,41.9"/>
	<path class="st1" d="M449.1,37.7c-0.8,6.1-2.8,14.6-2,23.7c1.1,12.8,10.3,21.8,20.8,20.6c16.9-1.8,17.1-21.1,17.1-21.9
		c0-29.3-22.5-53.4-51.2-55.9C449.6,8,451.2,22.9,449.1,37.7"/>
	<path class="st1" d="M42.3,178.1l-5-18.6H17.8L13,178.1H3.7L22.1,114h14.1l18.4,64.1H42.3 M29,128.7c-0.6-2.4-1.3-6.2-1.3-6.2h-0.3
		c0,0-0.5,3.7-1.2,6.1l-6,22.6h14.7L29,128.7z"/>
	<path class="st1" d="M78.1,179.2c-3.9,0-8.2-1.4-8.2-1.4v19.4H59.8v-50.4c0-6.3,0-7.4-3.8-14.5l6.9-2.8l5.2,7c0,0,3-6.8,12.2-6.8
		c12.6,0,18,11,18,23.9C98.3,167.8,92,179.2,78.1,179.2 M78.6,137.7c-6.9,0-8.7,6.6-8.7,13.9v18.9c0,0,2.6,1.2,5.8,1.2
		c8.2,0,12.1-7.8,12.1-17.6C87.8,146.7,85.7,137.7,78.6,137.7z"/>
	<path class="st1" d="M113.5,156.4c0,9.1,5.1,15.2,15.9,15.2c5.4,0,9.4-1.7,9.4-1.7v7.6c0,0-4.3,1.7-10.5,1.7
		c-16.4,0-25.2-9.2-25.2-25.5c0-13.7,6.1-24,19.7-24c15.9,0,18.7,11.6,18.7,26.7L113.5,156.4 M123.1,137.2c-7.2,0-9.4,7.2-9.4,11.5
		h17.5C131.1,143.9,130.4,137.2,123.1,137.2z"/>
	<path class="st1" d="M212.1,178.1h-24.5V114H211c11.3,0,19.5,4.9,19.5,16.2c0,11.3-10,14-10,14s11.9,2.3,11.9,15.8
		C232.5,171.9,224.1,178.1,212.1,178.1 M208,122.2h-9v18.4h8.8c6.6,0,11-2.7,11-9.4C218.8,124.6,214.4,122.2,208,122.2z M208,148.9
		h-8.9v21h9.6c7.7,0,12-3.3,12-11C220.8,151.8,215.3,148.9,208,148.9z"/>
	<path class="st1" d="M251,143.5v34.6h-10v-31.2c0-6.2,0.1-7.5-3.8-14.5l6.9-2.8l5.3,7.2c4.6-6.8,10-6.9,12.2-6.9v8.4
		C259.5,138.2,254.7,138.5,251,143.5"/>
	<path class="st1" d="M296.9,179.6l-5.3-7.2c-1.5,2.1-4.9,6.9-12.9,6.9c-8.2,0-14.6-4.9-14.6-14c0-15,14.9-15.6,25.8-17.9
		c0-7.4-3-10-10.6-10c-5.6,0-11.2,1.7-11.2,1.7v-7.5c0,0,5.5-1.8,12.5-1.8c13.3,0,19.5,5.4,19.5,18.1v14.4c0,6.3-0.1,7.4,3.8,14.5
		L296.9,179.6 M289.9,154.7c-9.1,2.2-15.5,2.6-15.5,10.1c0,3.8,2.8,6.1,6.6,6.1c6,0,8.9-4.5,8.9-10.5L289.9,154.7L289.9,154.7z"/>
	<path class="st1" d="M319.4,179.1c-8.2,0-13-4.4-13-4.4l2.5-6.5c0,0,3.9,3.2,9.6,3.2c4.3,0,8-1.8,8-5.9c0-8.7-19.5-6.2-19.5-22
		c0-9.5,8-13.9,17.2-13.9c5.6,0,10.3,1.7,10.3,1.7v7.6c0,0-4.4-1.7-9.2-1.7c-4,0-8.2,1.5-8.2,5.5c0,8.2,19.5,6.3,19.5,21.8
		C336.7,174.2,329.2,179.1,319.4,179.1"/>
	<path class="st1" d="M353.9,123.9h-10.2v-10h10.2V123.9z M353.9,178.1h-10.2v-47.3h10.2V178.1z"/>
	<path class="st1" d="M371.9,179.6l-2.9-4c-3.9-5.4-4.1-6.7-4.1-15.1v-46.5h10.2v46.5c0,8.1-0.2,8.8,3.7,16.1L371.9,179.6"/>
	<path class="st1" d="M174.7,165.8l-6.4-12.2l12.5-22.7h-9.3l-7.7,15.2l-2.8-5.4c-3.4-6.6-5.3-7.6-11.9-11.1l-4.9,5.3
		c4.6,3.3,4.9,4.6,7.5,9.5l4.9,9.2l-12.7,24.6h9.2l8.2-16.7l4.1,8.2c2.8,5.5,3.3,5.7,10.4,9.8l5.4-5.2
		C176.8,170.6,177.4,170.8,174.7,165.8"/>
</g>
</svg>
