<svg xmlns="http://www.w3.org/2000/svg" width="155.67" height="10.48" viewBox="0 0 155.67 10.48">
  <g id="arrowSlider" transform="translate(155.67 10.48) rotate(180)">
    <rect id="Retângulo_22" data-name="Retângulo 22" width="150" height="2" transform="translate(0 4.42)" fill="#f3af0e"/>
    <g id="Grupo_29" data-name="Grupo 29" transform="translate(-2.12 4.78)">
      <g id="Grupo_87" data-name="Grupo 87">
        <path id="Caminho_118" data-name="Caminho 118" d="M157.62.05l-4.66-4.66a.566.566,0,0,0-.41-.17.566.566,0,0,0-.41.17l-.34.34a.58.58,0,0,0,0,.81L155.71.45l-3.92,3.92a.566.566,0,0,0-.17.41.583.583,0,0,0,.17.41l.34.34a.579.579,0,0,0,.82,0L157.62.86a.566.566,0,0,0,.17-.41A.544.544,0,0,0,157.62.05Z" fill="#f3af0e"/>
      </g>
    </g>
  </g>
</svg>
