<svg xmlns="http://www.w3.org/2000/svg" width="392.844" height="270.035" viewBox="0 0 392.844 270.035">
  <g id="bgcontact" transform="translate(430.96 16.27)">
    <path id="Caminho_137" data-name="Caminho 137" d="M-237.44,87.852l14.17,15.192L-115.336,58.02Z" transform="translate(73.753 28.313)" fill="#999"/>
    <path id="Caminho_138" data-name="Caminho 138" d="M-224.434,43.33-235.1,59.42l7.209,15.758-16.173,2.748-14.281,31.379L-103.9,62.569Z" transform="translate(65.788 22.714)" fill="#ccc"/>
    <path id="Caminho_139" data-name="Caminho 139" d="M-234.3,70.739-241.51,54.98l83.654,3.909Z" transform="translate(72.202 27.154)" fill="#999"/>
    <g id="Grupo_95" data-name="Grupo 95" transform="translate(-308.704 122.656)">
      <path id="Caminho_140" data-name="Caminho 140" d="M-203.97,215.429c-1.188,0-2.376-.014-3.563-.028a2.16,2.16,0,0,1-2.141-2.182,2.124,2.124,0,0,1,2.182-2.141c5.607.069,11.173-.028,17.278-.276h.1a2.172,2.172,0,0,1,2.168,2.072,2.162,2.162,0,0,1-2.072,2.251C-194.91,215.332-199.481,215.429-203.97,215.429Zm-20.91-.856a.913.913,0,0,1-.193-.014c-5.966-.511-11.822-1.271-17.43-2.279a2.166,2.166,0,0,1-1.754-2.514,2.205,2.205,0,0,1,2.514-1.754c5.469.981,11.215,1.726,17.043,2.224a2.17,2.17,0,0,1,1.975,2.348A2.154,2.154,0,0,1-224.88,214.573Zm-34.155-6.243a2.028,2.028,0,0,1-.635-.1,126.606,126.606,0,0,1-16.5-6.339,2.16,2.16,0,0,1-1.036-2.873,2.152,2.152,0,0,1,2.873-1.036,121.676,121.676,0,0,0,15.924,6.118,2.166,2.166,0,0,1,1.436,2.707A2.159,2.159,0,0,1-259.035,208.33Zm-31.351-14.764a2.143,2.143,0,0,1-1.2-.359,115.636,115.636,0,0,1-13.935-10.938,2.148,2.148,0,0,1-.124-3.052,2.161,2.161,0,0,1,3.052-.124,110.631,110.631,0,0,0,13.4,10.524,2.158,2.158,0,0,1,.594,3A2.149,2.149,0,0,1-290.386,193.566ZM-315.9,170.115a2.164,2.164,0,0,1-1.7-.815,116.372,116.372,0,0,1-9.93-14.667,2.16,2.16,0,0,1,.815-2.956,2.184,2.184,0,0,1,2.956.815,111.571,111.571,0,0,0,9.557,14.115,2.156,2.156,0,0,1-.345,3.038A2.208,2.208,0,0,1-315.9,170.115Zm-17.154-30.108a2.183,2.183,0,0,1-2.03-1.409,105.444,105.444,0,0,1-4.861-17.057A2.166,2.166,0,0,1-338.228,119a2.149,2.149,0,0,1,2.541,1.713,101.537,101.537,0,0,0,4.668,16.366,2.16,2.16,0,0,1-1.257,2.79A2.179,2.179,0,0,1-333.049,140.006Zm-6.906-33.962a2.161,2.161,0,0,1-2.155-2.03c-.221-3.536-.331-7.265-.331-11.063v-.884c.014-1.878.041-3.77.1-5.649a2.167,2.167,0,0,1,2.168-2.1h.069a2.183,2.183,0,0,1,2.1,2.237c-.055,1.851-.1,3.688-.1,5.524v.87c0,3.715.11,7.348.331,10.786a2.153,2.153,0,0,1-2.016,2.293A.729.729,0,0,1-339.954,106.045Z" transform="translate(342.44 -84.32)" fill="#999"/>
    </g>
    <g id="Grupo_96" data-name="Grupo 96" transform="translate(-430.96 -16.27)">
      <path id="Caminho_141" data-name="Caminho 141" d="M-288.015,110.047c-3.3,0-6.56-.041-9.751-.124a2.173,2.173,0,0,1-2.113-2.224,2.17,2.17,0,0,1,2.168-2.113h.055q8.39.207,17.292.041a2.06,2.06,0,0,1,2.21,2.127,2.163,2.163,0,0,1-2.127,2.21C-282.891,110.019-285.474,110.047-288.015,110.047Zm25.067-.718a2.164,2.164,0,0,1-2.155-2.044,2.163,2.163,0,0,1,2.044-2.279c5.593-.318,11.408-.732,17.278-1.257a2.164,2.164,0,0,1,2.348,1.961,2.166,2.166,0,0,1-1.961,2.348c-5.911.525-11.781.953-17.43,1.257A.382.382,0,0,1-262.948,109.328Zm-52.137-.276h-.166c-6.022-.47-11.891-1.1-17.43-1.906a2.163,2.163,0,0,1-1.837-2.445,2.2,2.2,0,0,1,2.445-1.837c5.442.773,11.215,1.409,17.153,1.865a2.168,2.168,0,0,1,1.989,2.334A2.166,2.166,0,0,1-315.085,109.052Zm86.789-2.776a2.163,2.163,0,0,1-2.141-1.92,2.171,2.171,0,0,1,1.906-2.4q8.432-.994,17.195-2.237a2.136,2.136,0,0,1,2.445,1.837A2.156,2.156,0,0,1-210.728,104q-8.825,1.264-17.305,2.251A.808.808,0,0,1-228.3,106.276Zm-121.193-2.21a1.818,1.818,0,0,1-.47-.055c-4.185-.939-8.273-2-12.126-3.149-1.644-.483-3.259-.994-4.848-1.519a2.153,2.153,0,0,1-1.367-2.735,2.16,2.16,0,0,1,2.735-1.381c1.547.511,3.121,1.008,4.723,1.478,3.77,1.119,7.748,2.155,11.836,3.066a2.162,2.162,0,0,1,1.644,2.583A2.2,2.2,0,0,1-349.488,104.066Zm-32.884-11.118a2.082,2.082,0,0,1-.939-.221,105.408,105.408,0,0,1-15.275-9,2.167,2.167,0,0,1-.5-3.025,2.165,2.165,0,0,1,3.025-.5,101.556,101.556,0,0,0,14.654,8.632,2.173,2.173,0,0,1,1.008,2.887A2.24,2.24,0,0,1-382.372,92.948Zm74.525-1.934a2.172,2.172,0,0,1-2.168-2.168v-.773c0-5.455-.221-11.007-.649-16.49a2.176,2.176,0,0,1,1.989-2.334,2.2,2.2,0,0,1,2.334,1.989c.442,5.594.663,11.256.663,16.822v.773A2.184,2.184,0,0,1-307.848,91.015ZM-410.354,72.646a2.171,2.171,0,0,1-1.6-.7,74.993,74.993,0,0,1-10.4-14.515,2.163,2.163,0,0,1,.856-2.942,2.184,2.184,0,0,1,2.942.856,71.082,71.082,0,0,0,9.806,13.687,2.161,2.161,0,0,1-.138,3.052A2.174,2.174,0,0,1-410.354,72.646Zm99.716-16.352a2.161,2.161,0,0,1-2.127-1.8,148.146,148.146,0,0,0-3.826-16.725,2.158,2.158,0,0,1,1.464-2.679,2.136,2.136,0,0,1,2.679,1.464A150.3,150.3,0,0,1-308.51,53.78a2.17,2.17,0,0,1-1.768,2.5A3,3,0,0,1-310.637,56.294ZM-426.955,42.469a2.167,2.167,0,0,1-2.086-1.588c-.262-.967-.525-1.947-.76-2.942a41.606,41.606,0,0,1-1.16-9.6,37.152,37.152,0,0,1,.414-5.552,2.151,2.151,0,0,1,2.458-1.809,2.154,2.154,0,0,1,1.809,2.458,32.019,32.019,0,0,0-.373,4.9,37.747,37.747,0,0,0,1.05,8.6c.221.939.456,1.865.718,2.79a2.166,2.166,0,0,1-1.505,2.666A2.543,2.543,0,0,1-426.955,42.469Zm106.29-19.418a2.168,2.168,0,0,1-1.947-1.229A73.294,73.294,0,0,0-331.492,7.5a2.155,2.155,0,0,1,.331-3.038,2.157,2.157,0,0,1,3.038.331,77.786,77.786,0,0,1,9.405,15.165,2.152,2.152,0,0,1-1.008,2.887A2.31,2.31,0,0,1-320.664,23.05ZM-421.582,9.474a2.119,2.119,0,0,1-1.312-.442,2.176,2.176,0,0,1-.414-3.038A49.372,49.372,0,0,1-409.76-5.981a2.173,2.173,0,0,1,2.983.718,2.175,2.175,0,0,1-.718,2.983A44.663,44.663,0,0,0-419.87,8.631,2.138,2.138,0,0,1-421.582,9.474ZM-342.569-3.4a2.131,2.131,0,0,1-1.188-.359,48.922,48.922,0,0,0-15.178-6.574,2.182,2.182,0,0,1-1.588-2.624,2.182,2.182,0,0,1,2.624-1.588,53.5,53.5,0,0,1,16.518,7.154,2.162,2.162,0,0,1,.622,3A2.073,2.073,0,0,1-342.569-3.4Zm-50.148-5.511a2.15,2.15,0,0,1-2.072-1.561,2.179,2.179,0,0,1,1.464-2.693,81.815,81.815,0,0,1,17.015-3.08l.649-.028a2.32,2.32,0,0,1,2.21,2.127,2.172,2.172,0,0,1-2.127,2.21l-.47.014a77.108,77.108,0,0,0-16.062,2.9A1.622,1.622,0,0,1-392.717-8.909Z" transform="translate(430.96 16.27)" fill="#999"/>
    </g>
  </g>
</svg>
