<svg xmlns="http://www.w3.org/2000/svg" width="798.145" height="145.618" viewBox="0 0 798.145 145.618">
  <g id="bgsustent" transform="translate(591.478 -3149.404)">
    <g id="XMLID_22_" transform="translate(-520.687 3231.967)" opacity="0.94">
      <path id="XMLID_29_" d="M-396.4,3388.61l-.4,44.047h3.388l-1.571-44.047Z" transform="translate(408.246 -3370.125)" fill="#fff"/>
      <path id="XMLID_28_" d="M-395.714,3383.35h0a1.091,1.091,0,0,1,1.086,1.086v1.255a.348.348,0,0,1-.346.346h-1.479a.348.348,0,0,1-.346-.346v-1.255A1.091,1.091,0,0,1-395.714,3383.35Z" transform="translate(408.247 -3367.087)" fill="#c6c6f1"/>
      <path id="XMLID_27_" d="M-395.94,3389.71l2.619,32.181-1.141-32.181Z" transform="translate(407.75 -3370.76)" fill="#becdea"/>
      <path id="XMLID_26_" d="M-412.028,3385.25l-11.79,11.879a.267.267,0,0,0-.076.228h0a.268.268,0,0,0,.393.2l.139-.076a.257.257,0,0,0,.055-.038l3.329-3.037,6.438-5.762a2.011,2.011,0,0,0,.608-1h0a2.041,2.041,0,0,1,.435-.824l.684-.781Z" transform="translate(423.897 -3368.184)" fill="#fff"/>
      <path id="XMLID_25_" d="M-392.94,3385.769l16.078,4.651a.265.265,0,0,0,.237-.042h0a.27.27,0,0,0-.013-.443l-.131-.089a.26.26,0,0,0-.059-.03l-4.262-1.466-8.144-2.889a2.009,2.009,0,0,0-1.17-.055h0a2.047,2.047,0,0,1-.934.012l-1.014-.228Z" transform="translate(406.017 -3368.15)" fill="#fff"/>
      <path id="XMLID_24_" d="M-399.733,3361.237-404,3345.053a.275.275,0,0,0-.161-.182h0a.269.269,0,0,0-.372.241l0,.16a.361.361,0,0,0,0,.067l.934,4.406,1.707,8.47a2.039,2.039,0,0,0,.553,1.031h0a2,2,0,0,1,.49.794l.325.989Z" transform="translate(412.717 -3344.851)" fill="#fff"/>
      <path id="XMLID_23_" d="M-394.529,3384.16a1.141,1.141,0,0,1-1.141,1.141,1.141,1.141,0,0,1-1.141-1.141,1.141,1.141,0,0,1,1.141-1.14A1.138,1.138,0,0,1-394.529,3384.16Z" transform="translate(408.252 -3366.896)" fill="#fff"/>
    </g>
    <g id="XMLID_30_" transform="translate(-364.81 3254.768)" opacity="0.94">
      <path id="XMLID_37_" d="M-37.242,3426.93l-.258,28.282h2.176l-1.01-28.282Z" transform="translate(44.848 -3415.059)" fill="#fff"/>
      <path id="XMLID_36_" d="M-36.8,3423.56h0a.7.7,0,0,1,.7.7v.8a.226.226,0,0,1-.224.224h-.946a.226.226,0,0,1-.224-.224v-.8A.7.7,0,0,1-36.8,3423.56Z" transform="translate(44.848 -3413.113)" fill="#c6c6f1"/>
      <path id="XMLID_35_" d="M-36.95,3427.64l1.681,20.661L-36,3427.64Z" transform="translate(44.531 -3415.469)" fill="#becdea"/>
      <path id="XMLID_34_" d="M-47.277,3424.78l-7.57,7.625a.171.171,0,0,0-.046.148h0a.172.172,0,0,0,.253.127l.089-.047a.2.2,0,0,0,.034-.025l2.137-1.952,4.136-3.7a1.316,1.316,0,0,0,.393-.642h0a1.329,1.329,0,0,1,.279-.528l.439-.5Z" transform="translate(54.895 -3413.817)" fill="#fff"/>
      <path id="XMLID_33_" d="M-35.02,3425.124l10.324,2.987a.165.165,0,0,0,.152-.03h0a.171.171,0,0,0-.008-.283l-.084-.055a.154.154,0,0,0-.038-.017l-2.733-.942-5.23-1.854a1.3,1.3,0,0,0-.752-.034h0a1.311,1.311,0,0,1-.6.008l-.651-.144Z" transform="translate(43.416 -3413.806)" fill="#fff"/>
      <path id="XMLID_32_" d="M-39.376,3409.352l-2.742-10.392a.177.177,0,0,0-.1-.118h0a.172.172,0,0,0-.237.152l0,.1a.144.144,0,0,0,0,.042l.6,2.83,1.1,5.441a1.307,1.307,0,0,0,.355.663h0a1.28,1.28,0,0,1,.313.511l.211.634Z" transform="translate(47.713 -3398.828)" fill="#fff"/>
      <path id="XMLID_31_" d="M-36.038,3424.081a.731.731,0,0,1-.731.731.731.731,0,0,1-.731-.731.731.731,0,0,1,.731-.731A.726.726,0,0,1-36.038,3424.081Z" transform="translate(44.848 -3412.991)" fill="#fff"/>
    </g>
    <g id="XMLID_38_" transform="translate(-383.045 3271.22)" opacity="0.94">
      <path id="XMLID_45_" d="M-87.822,3454.06l-.148,16.4h1.259l-.583-16.4Z" transform="translate(92.233 -3447.18)" fill="#fff"/>
      <path id="XMLID_44_" d="M-87.574,3452.1h0a.406.406,0,0,1,.406.406v.465a.132.132,0,0,1-.131.131h-.549a.132.132,0,0,1-.131-.131v-.465A.411.411,0,0,1-87.574,3452.1Z" transform="translate(92.239 -3446.048)" fill="#c6c6f1"/>
      <path id="XMLID_43_" d="M-87.65,3454.47l.976,11.98-.427-11.98Z" transform="translate(92.048 -3447.417)" fill="#becdea"/>
      <path id="XMLID_42_" d="M-93.642,3452.81l-4.389,4.423a.1.1,0,0,0-.03.084h0a.1.1,0,0,0,.148.076l.051-.03.021-.013,1.238-1.132,2.4-2.146a.757.757,0,0,0,.228-.372h0a.729.729,0,0,1,.165-.308l.253-.292Z" transform="translate(98.062 -3446.458)" fill="#fff"/>
      <path id="XMLID_41_" d="M-86.54,3453l5.986,1.732a.1.1,0,0,0,.089-.017h0a.1.1,0,0,0,0-.165l-.051-.034-.021-.013-1.584-.545-3.033-1.077a.764.764,0,0,0-.435-.021h0a.742.742,0,0,1-.346,0l-.376-.084Z" transform="translate(91.407 -3446.44)" fill="#fff"/>
      <path id="XMLID_40_" d="M-89.069,3443.872l-1.588-6.024a.1.1,0,0,0-.059-.067h0a.1.1,0,0,0-.139.089l0,.059v.025l.346,1.639.638,3.156a.764.764,0,0,0,.207.385h0a.769.769,0,0,1,.182.3l.123.367Z" transform="translate(93.902 -3437.773)" fill="#fff"/>
      <path id="XMLID_39_" d="M-87.125,3452.4a.424.424,0,0,1-.422.422.424.424,0,0,1-.422-.422.424.424,0,0,1,.422-.422A.421.421,0,0,1-87.125,3452.4Z" transform="translate(92.233 -3445.979)" fill="#fff"/>
    </g>
    <g id="XMLID_54_" transform="translate(-210.744 3264.399)" opacity="0.94">
      <path id="XMLID_62_" d="M323.154,3442.85l-.194,21.358H324.6l-.765-21.358Z" transform="translate(-317.408 -3433.885)" fill="#fff"/>
      <path id="XMLID_61_" d="M323.478,3440.3h0a.528.528,0,0,1,.528.528v.608a.169.169,0,0,1-.169.169h-.718a.169.169,0,0,1-.169-.169v-.608A.534.534,0,0,1,323.478,3440.3Z" transform="translate(-317.403 -3432.412)" fill="#c6c6f1"/>
      <path id="XMLID_60_" d="M323.37,3443.38l1.271,15.6-.553-15.6Z" transform="translate(-317.645 -3434.191)" fill="#becdea"/>
      <path id="XMLID_59_" d="M315.572,3441.22l-5.715,5.762a.136.136,0,0,0-.038.11h0a.131.131,0,0,0,.19.1l.068-.038c.008,0,.017-.012.025-.017l1.614-1.474,3.122-2.792a1,1,0,0,0,.3-.486h0a.993.993,0,0,1,.211-.4l.334-.38Z" transform="translate(-309.818 -3432.943)" fill="#fff"/>
      <path id="XMLID_58_" d="M324.83,3441.484l7.794,2.256a.124.124,0,0,0,.114-.021h0a.132.132,0,0,0-.008-.215l-.063-.042c-.008,0-.017-.013-.03-.013l-2.066-.709-3.95-1.4a.962.962,0,0,0-.566-.025h0a.962.962,0,0,1-.452,0l-.49-.11Z" transform="translate(-318.488 -3432.938)" fill="#fff"/>
      <path id="XMLID_57_" d="M321.532,3429.574l-2.07-7.849a.133.133,0,0,0-.076-.089h0a.133.133,0,0,0-.182.118l0,.076a.093.093,0,0,0,0,.034l.452,2.137.828,4.106a.974.974,0,0,0,.266.5h0a.962.962,0,0,1,.237.384l.161.478Z" transform="translate(-315.237 -3421.627)" fill="#fff"/>
      <path id="XMLID_55_" d="M324.057,3440.693a.553.553,0,1,1-.553-.553A.555.555,0,0,1,324.057,3440.693Z" transform="translate(-317.403 -3432.319)" fill="#fff"/>
    </g>
    <g id="XMLID_80_" transform="translate(45.671 3264.399)" opacity="0.94">
      <path id="XMLID_88_" d="M930.154,3442.85l-.194,21.358H931.6l-.765-21.358Z" transform="translate(-924.408 -3433.885)" fill="#fff"/>
      <path id="XMLID_87_" d="M930.478,3440.3h0a.528.528,0,0,1,.528.528v.608a.169.169,0,0,1-.169.169h-.718a.169.169,0,0,1-.169-.169v-.608A.534.534,0,0,1,930.478,3440.3Z" transform="translate(-924.403 -3432.412)" fill="#c6c6f1"/>
      <path id="XMLID_86_" d="M930.37,3443.38l1.271,15.6-.553-15.6Z" transform="translate(-924.645 -3434.191)" fill="#becdea"/>
      <path id="XMLID_85_" d="M922.572,3441.22l-5.715,5.762a.136.136,0,0,0-.038.11h0a.131.131,0,0,0,.19.1l.068-.038c.008,0,.017-.012.025-.017l1.614-1.474,3.122-2.792a1,1,0,0,0,.3-.486h0a.992.992,0,0,1,.211-.4l.334-.38Z" transform="translate(-916.818 -3432.943)" fill="#fff"/>
      <path id="XMLID_84_" d="M931.83,3441.484l7.794,2.256a.124.124,0,0,0,.114-.021h0a.132.132,0,0,0-.008-.215l-.063-.042c-.008,0-.017-.013-.03-.013l-2.066-.709-3.95-1.4a.961.961,0,0,0-.566-.025h0a.962.962,0,0,1-.452,0l-.49-.11Z" transform="translate(-925.489 -3432.938)" fill="#fff"/>
      <path id="XMLID_83_" d="M928.532,3429.574l-2.07-7.849a.133.133,0,0,0-.076-.089h0a.133.133,0,0,0-.182.118l0,.076a.092.092,0,0,0,0,.034l.452,2.137.828,4.106a.974.974,0,0,0,.266.5h0a.962.962,0,0,1,.237.384l.161.478Z" transform="translate(-922.237 -3421.627)" fill="#fff"/>
      <path id="XMLID_82_" d="M931.057,3440.693a.553.553,0,1,1-.553-.553A.555.555,0,0,1,931.057,3440.693Z" transform="translate(-924.403 -3432.319)" fill="#fff"/>
    </g>
    <g id="XMLID_46_" transform="translate(-228.935 3256.705)" opacity="0.94">
      <path id="XMLID_53_" d="M283.515,3430.08l-.245,26.845h2.066l-.959-26.845Z" transform="translate(-276.294 -3418.815)" fill="#fff"/>
      <path id="XMLID_52_" d="M283.939,3426.87h0a.667.667,0,0,1,.663.663v.764a.214.214,0,0,1-.211.211h-.9a.212.212,0,0,1-.211-.211v-.764A.661.661,0,0,1,283.939,3426.87Z" transform="translate(-276.299 -3416.961)" fill="#c6c6f1"/>
      <path id="XMLID_51_" d="M283.8,3430.75l1.6,19.614-.7-19.614Z" transform="translate(-276.6 -3419.201)" fill="#becdea"/>
      <path id="XMLID_50_" d="M273.989,3428.03l-7.186,7.241a.158.158,0,0,0-.046.139h0a.164.164,0,0,0,.241.123l.084-.046a.17.17,0,0,0,.034-.025l2.028-1.85,3.924-3.515a1.251,1.251,0,0,0,.372-.608h0a1.2,1.2,0,0,1,.266-.5l.418-.478Z" transform="translate(-266.755 -3417.63)" fill="#fff"/>
      <path id="XMLID_49_" d="M285.62,3428.351l9.8,2.834a.172.172,0,0,0,.144-.025h0a.164.164,0,0,0-.008-.27l-.08-.055a.153.153,0,0,0-.038-.017l-2.6-.891-4.964-1.761a1.248,1.248,0,0,0-.714-.034h0a1.236,1.236,0,0,1-.57.009l-.617-.139Z" transform="translate(-277.651 -3417.613)" fill="#fff"/>
      <path id="XMLID_48_" d="M281.482,3413.4l-2.6-9.864a.168.168,0,0,0-.1-.11h0a.167.167,0,0,0-.228.148l0,.1a.158.158,0,0,0,0,.042l.57,2.687,1.039,5.162a1.227,1.227,0,0,0,.338.629h0a1.255,1.255,0,0,1,.3.486l.2.6Z" transform="translate(-273.567 -3403.412)" fill="#fff"/>
      <path id="XMLID_47_" d="M284.666,3427.363a.693.693,0,1,1-.693-.693A.693.693,0,0,1,284.666,3427.363Z" transform="translate(-276.299 -3416.845)" fill="#fff"/>
    </g>
    <g id="XMLID_12_" transform="translate(-591.478 3211.927)">
      <path id="XMLID_21_" d="M-539.734,3353.82l-.536,59.267h4.558l-2.116-59.267Z" transform="translate(561.902 -3329.991)" fill="#fff"/>
      <path id="XMLID_20_" d="M-538.818,3346.74h0a1.467,1.467,0,0,1,1.462,1.461v1.686a.47.47,0,0,1-.469.469h-1.985a.47.47,0,0,1-.469-.469V3348.2A1.468,1.468,0,0,1-538.818,3346.74Z" transform="translate(561.908 -3325.903)" fill="#c6c6f1"/>
      <path id="XMLID_19_" d="M-539.12,3355.29l3.527,43.3-1.538-43.3Z" transform="translate(561.238 -3330.841)" fill="#becdea"/>
      <path id="XMLID_18_" d="M-569.052,3348.51l-22.131,4.174a.358.358,0,0,0-.258.194h0a.365.365,0,0,0,.287.523l.211.025a.3.3,0,0,0,.089,0l6.007-.828,11.532-1.474a2.722,2.722,0,0,0,1.436-.643h0a2.726,2.726,0,0,1,1.115-.583l1.356-.342Z" transform="translate(591.478 -3326.924)" fill="#fff"/>
      <path id="XMLID_17_" d="M-536.22,3351.874l14.274,17.421a.35.35,0,0,0,.3.131h0a.362.362,0,0,0,.321-.5l-.08-.2a.327.327,0,0,0-.042-.076l-3.607-4.875-6.827-9.416a2.754,2.754,0,0,0-1.255-.955h0a2.734,2.734,0,0,1-1.043-.7l-.95-1.026Z" transform="translate(559.563 -3328.756)" fill="#fff"/>
      <path id="XMLID_16_" d="M-535.212,3319.094l7.608-21.2a.36.36,0,0,0-.038-.321h0a.364.364,0,0,0-.6-.017l-.127.169a.357.357,0,0,0-.042.076l-2.328,5.6-4.571,10.692a2.718,2.718,0,0,0-.173,1.563h0a2.74,2.74,0,0,1-.063,1.254l-.389,1.344Z" transform="translate(559.395 -3297.412)" fill="#fff"/>
      <path id="XMLID_15_" d="M-537.213,3347.823a1.533,1.533,0,0,1-1.533,1.533,1.533,1.533,0,0,1-1.533-1.533,1.533,1.533,0,0,1,1.533-1.533A1.533,1.533,0,0,1-537.213,3347.823Z" transform="translate(561.908 -3325.643)" fill="#fff"/>
    </g>
    <g id="XMLID_1_" transform="translate(-581.688 3149.404)">
      <path id="XMLID_9_" d="M-472.46,3232.18l-1.01,110.516h8.508l-3.945-110.516Z" transform="translate(513.53 -3197.213)" fill="#fff"/>
      <path id="XMLID_8_" d="M-471.2,3218.97h.9a2.279,2.279,0,0,1,2.273,2.273v3.743a.726.726,0,0,1-.727.727h-4a.726.726,0,0,1-.727-.727v-3.743A2.279,2.279,0,0,1-471.2,3218.97Z" transform="translate(513.53 -3189.583)" fill="#c6c6f1"/>
      <path id="XMLID_7_" d="M-471.31,3234.93l6.573,80.752-2.864-80.752Z" transform="translate(512.283 -3198.801)" fill="#becdea"/>
      <path id="XMLID_6_" d="M-469.2,3228.01l12.28,40.165a.676.676,0,0,0,.418.439h0a.676.676,0,0,0,.908-.638v-.4a.733.733,0,0,0-.021-.165l-2.767-10.958-5.1-21.075a5.092,5.092,0,0,0-1.487-2.534h0a5.115,5.115,0,0,1-1.305-1.943l-.917-2.442Z" transform="translate(511.064 -3194.804)" fill="#fff"/>
      <path id="XMLID_5_" d="M-463.69,3180.591l29.355-30.035a.685.685,0,0,0,.186-.574h0a.681.681,0,0,0-1-.494l-.351.19a.609.609,0,0,0-.135.1l-8.292,7.684-16.044,14.587a5.06,5.06,0,0,0-1.508,2.518h0a5.059,5.059,0,0,1-1.081,2.078l-1.7,1.977Z" transform="translate(508.211 -3149.404)" fill="#fff"/>
      <path id="XMLID_4_" d="M-526.62,3206.893l-40.849-9.75a.667.667,0,0,0-.587.135h0a.677.677,0,0,0,.089,1.106l.342.2a.684.684,0,0,0,.152.068l10.852,3.164,20.758,6.273a5.072,5.072,0,0,0,2.936,0h0a5.088,5.088,0,0,1,2.336-.139l2.568.448Z" transform="translate(568.303 -3176.966)" fill="#fff"/>
      <path id="XMLID_3_" d="M-467.75,3221a2.859,2.859,0,0,1-2.86,2.86,2.859,2.859,0,0,1-2.86-2.86,2.86,2.86,0,0,1,2.86-2.86A2.865,2.865,0,0,1-467.75,3221Z" transform="translate(513.53 -3189.104)" fill="#fff"/>
    </g>
    <g id="XMLID_71_" transform="translate(178.053 3234.127)" opacity="0.94">
      <path id="XMLID_79_" d="M1256.879,3392.41l-.389,42.72h3.287l-1.525-42.72Z" transform="translate(-1245.385 -3374.48)" fill="#fff"/>
      <path id="XMLID_78_" d="M1257.536,3387.31h0a1.055,1.055,0,0,1,1.052,1.052v1.217a.339.339,0,0,1-.338.338h-1.432a.339.339,0,0,1-.338-.338v-1.217A1.061,1.061,0,0,1,1257.536,3387.31Z" transform="translate(-1245.379 -3371.534)" fill="#c6c6f1"/>
      <path id="XMLID_77_" d="M1257.32,3393.48l2.543,31.209-1.111-31.209Z" transform="translate(-1245.865 -3375.098)" fill="#becdea"/>
      <path id="XMLID_76_" d="M1241.713,3389.15l-11.435,11.52a.252.252,0,0,0-.072.22h0a.263.263,0,0,0,.384.194l.135-.072a.113.113,0,0,0,.051-.038l3.227-2.944,6.244-5.588a1.975,1.975,0,0,0,.591-.968h0a1.972,1.972,0,0,1,.422-.8l.663-.76Z" transform="translate(-1230.202 -3372.597)" fill="#fff"/>
      <path id="XMLID_75_" d="M1260.23,3389.657l15.6,4.511a.256.256,0,0,0,.228-.042h0a.265.265,0,0,0-.013-.431l-.131-.084a.265.265,0,0,0-.059-.03l-4.131-1.419-7.9-2.8a1.951,1.951,0,0,0-1.132-.055h0a1.981,1.981,0,0,1-.9.012l-.984-.22Z" transform="translate(-1247.545 -3372.568)" fill="#fff"/>
      <path id="XMLID_73_" d="M1253.644,3365.859l-4.144-15.7a.272.272,0,0,0-.156-.177h0a.26.26,0,0,0-.359.232l0,.152a.324.324,0,0,0,0,.063l.9,4.275,1.656,8.216a1.958,1.958,0,0,0,.536,1h0a1.935,1.935,0,0,1,.473.769l.317.959Z" transform="translate(-1241.048 -3349.965)" fill="#fff"/>
      <path id="XMLID_72_" d="M1258.693,3388.1a1.107,1.107,0,1,1-1.107-1.107A1.108,1.108,0,0,1,1258.693,3388.1Z" transform="translate(-1245.38 -3371.349)" fill="#fff"/>
    </g>
    <g id="XMLID_63_" transform="translate(122.577 3153.672)">
      <path id="XMLID_70_" d="M1191.836,3239.78l-.976,107.191h8.25l-3.827-107.191Z" transform="translate(-1152.003 -3205.87)" fill="#fff"/>
      <path id="XMLID_69_" d="M1193.129,3226.98h.743a2.279,2.279,0,0,1,2.273,2.273v3.54a.729.729,0,0,1-.727.727h-3.831a.727.727,0,0,1-.727-.727v-3.54A2.275,2.275,0,0,1,1193.129,3226.98Z" transform="translate(-1152.003 -3198.477)" fill="#c6c6f1"/>
      <path id="XMLID_68_" d="M1192.95,3242.45l6.375,78.319-2.78-78.319Z" transform="translate(-1153.21 -3207.412)" fill="#becdea"/>
      <path id="XMLID_67_" d="M1194.99,3235.74l11.912,38.952a.658.658,0,0,0,.406.427h0a.657.657,0,0,0,.883-.617v-.384a.511.511,0,0,0-.021-.161l-2.682-10.628-4.951-20.441a4.968,4.968,0,0,0-1.44-2.458h0a4.941,4.941,0,0,1-1.267-1.884l-.887-2.37Z" transform="translate(-1154.388 -3203.537)" fill="#fff"/>
      <path id="XMLID_66_" d="M1200.339,3189.754l28.472-29.131a.665.665,0,0,0,.182-.557h0a.655.655,0,0,0-.963-.478l-.338.186a.729.729,0,0,0-.131.093l-8.043,7.452-15.562,14.143a4.926,4.926,0,0,0-1.466,2.441h0a4.881,4.881,0,0,1-1.048,2.015l-1.652,1.914Z" transform="translate(-1157.161 -3159.507)" fill="#fff"/>
      <path id="XMLID_65_" d="M1139.3,3215.27l-39.62-9.454a.657.657,0,0,0-.57.131h0a.657.657,0,0,0,.084,1.073l.334.194a.646.646,0,0,0,.148.063l10.527,3.067,20.133,6.083a4.913,4.913,0,0,0,2.847,0h0a4.967,4.967,0,0,1,2.268-.135l2.492.435Z" transform="translate(-1098.875 -3186.244)" fill="#fff"/>
      <path id="XMLID_64_" d="M1196.412,3228.951a2.771,2.771,0,1,1-2.771-2.771A2.773,2.773,0,0,1,1196.412,3228.951Z" transform="translate(-1152.009 -3198.015)" fill="#fff"/>
    </g>
  </g>
</svg>
