<?xml version="1.0" encoding="utf-8"?>
<!-- Generator: Adobe Illustrator 24.1.0, SVG Export Plug-In . SVG Version: 6.00 Build 0)  -->
<svg version="1.1" id="Camada_1" xmlns="http://www.w3.org/2000/svg" xmlns:xlink="http://www.w3.org/1999/xlink" x="0px" y="0px"
	 viewBox="0 0 50 50" style="enable-background:new 0 0 50 50;" xml:space="preserve">
<style type="text/css">
	.st0{fill:#FFFFFF;}
</style>
<g id="icocountdown" transform="translate(175.013 191.393)">
	<path id="Caminho_38" class="st0" d="M-150-190.3c-0.1-0.2-0.3-0.3-0.5-0.3c-0.1,0-0.2,0.1-0.3,0.3c-0.3,0.7-0.2,1.6-0.2,2.4
		c0,0.9,0,1.8,0.1,2.7c0,0.3,0.2,0.5,0.5,0.5c0.3,0,0.5-0.2,0.5-0.5c0.1-0.9,0-1.8,0-2.7C-149.9-188.7-149.7-189.5-150-190.3z"/>
	<path id="Caminho_39" class="st0" d="M-146.3-190c0-0.2-0.2-0.4-0.4-0.3c-0.1,0-0.2,0.1-0.3,0.2c-0.4,0.7-0.4,1.6-0.6,2.3
		c-0.2,0.9-0.3,1.8-0.4,2.7c0,0.3,0.2,0.5,0.4,0.5c0.3,0,0.5-0.1,0.5-0.4c0.2-0.9,0.3-1.8,0.5-2.7
		C-146.4-188.4-146.1-189.2-146.3-190z"/>
	<path id="Caminho_40" class="st0" d="M-142.6-189.1c0-0.2-0.2-0.4-0.4-0.4c-0.1,0-0.2,0.1-0.3,0.2c-0.5,0.6-0.7,1.5-0.9,2.2
		c-0.3,0.8-0.6,1.7-0.8,2.6c-0.1,0.3,0.1,0.5,0.3,0.6c0.2,0.1,0.5-0.1,0.6-0.3c0.4-0.8,0.6-1.7,0.9-2.6
		C-143-187.5-142.6-188.3-142.6-189.1z"/>
	<path id="Caminho_41" class="st0" d="M-139.1-187.7c0-0.2-0.1-0.4-0.3-0.4c-0.1,0-0.3,0-0.3,0.1c-0.6,0.5-0.9,1.4-1.3,2.1
		c-0.4,0.8-0.8,1.6-1.2,2.4c-0.1,0.2,0,0.5,0.2,0.6c0.2,0.1,0.5,0,0.6-0.2c0.5-0.8,0.8-1.6,1.3-2.4
		C-139.8-186.2-139.3-186.9-139.1-187.7z"/>
	<path id="Caminho_42" class="st0" d="M-136-185.7c0.1-0.2,0-0.4-0.2-0.5c-0.1,0-0.3,0-0.4,0.1c-0.7,0.4-1.1,1.2-1.6,1.8
		c-0.6,0.7-1.1,1.4-1.5,2.2c-0.1,0.2-0.1,0.5,0.1,0.7c0.2,0.1,0.5,0.1,0.6-0.1c0.6-0.7,1.1-1.4,1.6-2.2
		C-136.8-184.3-136.2-184.9-136-185.7z"/>
	<path id="Caminho_43" class="st0" d="M-133.1-183.3c0.1-0.2,0-0.4-0.2-0.5c-0.1-0.1-0.2-0.1-0.4,0c-0.7,0.3-1.3,1-1.8,1.6
		c-0.7,0.6-1.3,1.3-1.9,1.9c-0.2,0.2-0.2,0.5,0,0.7c0.2,0.2,0.5,0.2,0.7,0c0.7-0.6,1.3-1.2,1.9-1.9
		C-134.2-182-133.5-182.5-133.1-183.3z"/>
	<path id="Caminho_44" class="st0" d="M-130.7-180.4c0.1-0.2,0.1-0.4-0.1-0.5c-0.1-0.1-0.2-0.1-0.4-0.1c-0.8,0.2-1.4,0.8-2.1,1.3
		c-0.7,0.5-1.5,1-2.1,1.6c-0.2,0.2-0.2,0.5-0.1,0.7c0.2,0.2,0.4,0.2,0.6,0.1c0.8-0.5,1.5-1,2.2-1.6
		C-131.9-179.4-131.1-179.8-130.7-180.4z"/>
	<path id="Caminho_45" class="st0" d="M-128.7-177.2c0.2-0.1,0.2-0.4,0-0.5c-0.1-0.1-0.2-0.1-0.3-0.1c-0.8,0.1-1.5,0.6-2.2,0.9
		c-0.8,0.4-1.6,0.8-2.4,1.3c-0.2,0.1-0.3,0.4-0.2,0.7c0.1,0.2,0.4,0.3,0.6,0.2c0.8-0.3,1.6-0.8,2.4-1.2
		C-130.1-176.4-129.3-176.6-128.7-177.2z"/>
	<path id="Caminho_46" class="st0" d="M-127.3-173.8c0.2-0.1,0.2-0.4,0.1-0.5c-0.1-0.1-0.2-0.2-0.3-0.2c-0.8-0.1-1.6,0.3-2.4,0.6
		c-0.9,0.2-1.7,0.5-2.5,0.9c-0.3,0.1-0.4,0.4-0.3,0.6c0.1,0.2,0.3,0.4,0.6,0.3c0.9-0.2,1.7-0.5,2.6-0.8
		C-128.8-173.1-127.9-173.3-127.3-173.8z"/>
	<path id="Caminho_47" class="st0" d="M-126.4-170.1c0.2-0.1,0.3-0.3,0.2-0.5c-0.1-0.1-0.2-0.2-0.3-0.2c-0.8-0.2-1.6,0.1-2.4,0.2
		c-0.9,0.1-1.8,0.3-2.7,0.5c-0.3,0-0.4,0.3-0.4,0.6c0,0.2,0.3,0.4,0.5,0.4c0.9-0.1,1.8-0.2,2.7-0.4
		C-128-169.7-127.1-169.7-126.4-170.1z"/>
	<path id="Caminho_48" class="st0" d="M-126.1-166.4c0.2-0.1,0.3-0.3,0.3-0.5c0-0.1-0.1-0.2-0.3-0.3c-0.7-0.3-1.6-0.2-2.4-0.2
		c-0.9,0-1.8,0-2.7,0.1c-0.3,0-0.5,0.2-0.5,0.5c0,0.3,0.2,0.5,0.5,0.5c0.9,0.1,1.8,0,2.7,0C-127.7-166.2-126.9-166.1-126.1-166.4z"
		/>
	<path id="Caminho_49" class="st0" d="M-126.4-162.6c0.2,0,0.4-0.2,0.3-0.4c0-0.1-0.1-0.2-0.2-0.3c-0.7-0.4-1.6-0.4-2.3-0.6
		c-0.9-0.2-1.8-0.3-2.7-0.4c-0.3,0-0.5,0.2-0.5,0.4c0,0.3,0.1,0.5,0.4,0.5c0.9,0.2,1.8,0.3,2.7,0.5
		C-128-162.8-127.2-162.5-126.4-162.6z"/>
	<path id="Caminho_50" class="st0" d="M-127.3-159c0.2,0,0.4-0.2,0.4-0.4c0-0.1-0.1-0.2-0.2-0.3c-0.6-0.5-1.5-0.7-2.2-0.9
		c-0.8-0.3-1.7-0.6-2.6-0.8c-0.3-0.1-0.5,0.1-0.6,0.3c-0.1,0.2,0.1,0.5,0.3,0.6c0.8,0.4,1.7,0.6,2.6,0.9
		C-128.9-159.4-128.1-159-127.3-159z"/>
	<path id="Caminho_51" class="st0" d="M-128.7-155.5c0.2,0,0.4-0.1,0.4-0.3c0-0.1,0-0.3-0.1-0.3c-0.5-0.6-1.4-0.9-2.1-1.3
		c-0.8-0.4-1.6-0.8-2.4-1.2c-0.2-0.1-0.5,0-0.6,0.2c-0.1,0.2,0,0.5,0.2,0.6c0.8,0.5,1.6,0.8,2.4,1.3
		C-130.2-156.2-129.5-155.6-128.7-155.5z"/>
	<path id="Caminho_52" class="st0" d="M-130.7-152.3c0.2,0.1,0.4,0,0.5-0.2c0-0.1,0-0.3-0.1-0.4c-0.4-0.7-1.2-1.1-1.8-1.6
		c-0.7-0.6-1.4-1.1-2.2-1.5c-0.2-0.1-0.5-0.1-0.7,0.1c-0.1,0.2-0.1,0.5,0.1,0.6c0.7,0.6,1.4,1.1,2.2,1.6
		C-132.1-153.2-131.5-152.6-130.7-152.3z"/>
	<path id="Caminho_53" class="st0" d="M-133.1-149.5c0.2,0.1,0.4,0,0.5-0.2c0.1-0.1,0.1-0.2,0-0.4c-0.3-0.7-1-1.3-1.6-1.8
		c-0.6-0.7-1.3-1.3-1.9-1.9c-0.2-0.2-0.5-0.2-0.7,0s-0.2,0.5,0,0.7c0.6,0.7,1.2,1.3,1.9,1.9C-134.4-150.5-133.9-149.8-133.1-149.5z"
		/>
	<path id="Caminho_54" class="st0" d="M-136-147.1c0.2,0.1,0.4,0.1,0.5-0.1c0.1-0.1,0.1-0.2,0.1-0.4c-0.2-0.8-0.8-1.4-1.3-2.1
		c-0.5-0.7-1-1.5-1.6-2.1c-0.2-0.2-0.5-0.2-0.7-0.1c-0.2,0.2-0.2,0.4-0.1,0.6c0.5,0.8,1,1.5,1.6,2.2
		C-137-148.3-136.6-147.5-136-147.1z"/>
	<path id="Caminho_55" class="st0" d="M-139.2-145.1c0.1,0.2,0.4,0.2,0.5,0c0.1-0.1,0.1-0.2,0.1-0.3c-0.1-0.8-0.6-1.5-0.9-2.2
		c-0.4-0.8-0.8-1.6-1.3-2.4c-0.1-0.2-0.4-0.3-0.7-0.2c-0.2,0.1-0.3,0.4-0.2,0.6c0.3,0.8,0.8,1.6,1.2,2.4
		C-140-146.5-139.8-145.7-139.2-145.1z"/>
	<path id="Caminho_56" class="st0" d="M-142.7-143.7c0.1,0.2,0.4,0.2,0.5,0.1c0.1-0.1,0.2-0.2,0.2-0.3c0.1-0.8-0.3-1.6-0.6-2.4
		c-0.2-0.9-0.5-1.7-0.9-2.5c-0.1-0.3-0.4-0.4-0.6-0.3c-0.2,0.1-0.4,0.3-0.3,0.6c0.2,0.9,0.5,1.7,0.8,2.6
		C-143.3-145.2-143.1-144.3-142.7-143.7z"/>
	<path id="Caminho_57" class="st0" d="M-146.3-142.8c0.1,0.2,0.3,0.3,0.5,0.2c0.1-0.1,0.2-0.2,0.2-0.3c0.2-0.8-0.1-1.6-0.2-2.4
		c-0.1-0.9-0.3-1.8-0.5-2.7c0-0.3-0.3-0.4-0.6-0.4c-0.2,0-0.4,0.3-0.4,0.5c0.1,0.9,0.2,1.8,0.4,2.7
		C-146.7-144.4-146.7-143.5-146.3-142.8z"/>
	<path id="Caminho_58" class="st0" d="M-150-142.5c0.1,0.2,0.3,0.3,0.5,0.3c0.1,0,0.2-0.1,0.3-0.3c0.3-0.7,0.2-1.6,0.2-2.4
		c0-0.9,0-1.8-0.1-2.7c0-0.3-0.2-0.5-0.5-0.5c-0.3,0-0.5,0.2-0.5,0.5c-0.1,0.9,0,1.8,0,2.7C-150.2-144.1-150.3-143.3-150-142.5z"/>
	<path id="Caminho_59" class="st0" d="M-153.8-142.8c0,0.2,0.2,0.4,0.4,0.3c0.1,0,0.2-0.1,0.3-0.2c0.4-0.7,0.4-1.6,0.6-2.3
		c0.2-0.9,0.3-1.8,0.4-2.7c0-0.3-0.2-0.5-0.4-0.5c-0.3,0-0.5,0.1-0.5,0.4c-0.2,0.9-0.3,1.8-0.5,2.7
		C-153.6-144.4-153.9-143.6-153.8-142.8z"/>
	<path id="Caminho_60" class="st0" d="M-157.4-143.7c0,0.2,0.2,0.4,0.4,0.4c0.1,0,0.2-0.1,0.3-0.2c0.5-0.6,0.7-1.5,0.9-2.2
		c0.3-0.8,0.6-1.7,0.8-2.6c0.1-0.3-0.1-0.5-0.3-0.6c-0.2-0.1-0.5,0.1-0.6,0.3c-0.4,0.8-0.6,1.7-0.9,2.6
		C-157-145.3-157.4-144.5-157.4-143.7z"/>
	<path id="Caminho_61" class="st0" d="M-160.9-145.1c0,0.2,0.1,0.4,0.3,0.4c0.1,0,0.3,0,0.3-0.1c0.6-0.5,0.9-1.4,1.3-2.1
		c0.4-0.8,0.8-1.6,1.2-2.4c0.1-0.2,0-0.5-0.2-0.6c-0.2-0.1-0.5,0-0.6,0.2c-0.5,0.8-0.8,1.6-1.3,2.4
		C-160.3-146.6-160.8-145.9-160.9-145.1z"/>
	<path id="Caminho_62" class="st0" d="M-164.1-147.1c-0.1,0.2,0,0.4,0.2,0.5c0.1,0,0.3,0,0.4-0.1c0.7-0.4,1.1-1.2,1.6-1.8
		c0.6-0.7,1.1-1.4,1.5-2.2c0.1-0.2,0.1-0.5-0.1-0.7c-0.2-0.1-0.5-0.1-0.6,0.1c-0.6,0.7-1.1,1.4-1.6,2.2
		C-163.2-148.5-163.8-147.9-164.1-147.1z"/>
	<path id="Caminho_63" class="st0" d="M-166.9-149.5c-0.1,0.2,0,0.4,0.2,0.5c0.1,0.1,0.2,0.1,0.4,0c0.7-0.3,1.3-1,1.8-1.6
		c0.7-0.6,1.3-1.3,1.9-1.9c0.2-0.2,0.2-0.5,0-0.7c-0.2-0.2-0.5-0.2-0.7,0c-0.7,0.6-1.3,1.2-1.9,1.9
		C-165.9-150.7-166.6-150.2-166.9-149.5z"/>
	<path id="Caminho_64" class="st0" d="M-169.4-152.4c-0.1,0.2-0.1,0.4,0.1,0.5c0.1,0.1,0.2,0.1,0.4,0.1c0.8-0.2,1.4-0.8,2.1-1.3
		c0.7-0.5,1.5-1,2.1-1.6c0.2-0.2,0.2-0.5,0.1-0.7c-0.2-0.2-0.4-0.2-0.6-0.1c-0.8,0.5-1.5,1-2.2,1.6
		C-168.1-153.4-168.9-153-169.4-152.4z"/>
	<path id="Caminho_65" class="st0" d="M-171.3-155.6c-0.2,0.1-0.2,0.4,0,0.5c0.1,0.1,0.2,0.1,0.3,0.1c0.8-0.1,1.5-0.6,2.2-0.9
		c0.8-0.4,1.6-0.8,2.4-1.3c0.2-0.1,0.3-0.4,0.2-0.7c-0.1-0.2-0.4-0.3-0.6-0.2c-0.8,0.3-1.6,0.8-2.4,1.2
		C-169.9-156.4-170.8-156.1-171.3-155.6z"/>
	<path id="Caminho_66" class="st0" d="M-172.7-159c-0.2,0.1-0.2,0.4-0.1,0.5c0.1,0.1,0.2,0.2,0.3,0.2c0.8,0.1,1.6-0.3,2.4-0.6
		c0.9-0.2,1.7-0.5,2.5-0.9c0.3-0.1,0.4-0.4,0.3-0.6c-0.1-0.2-0.3-0.4-0.6-0.3c-0.9,0.2-1.7,0.5-2.6,0.8
		C-171.2-159.7-172.1-159.5-172.7-159z"/>
	<path id="Caminho_67" class="st0" d="M-173.6-162.7c-0.2,0.1-0.3,0.3-0.2,0.5c0.1,0.1,0.2,0.2,0.3,0.2c0.8,0.2,1.6-0.1,2.4-0.2
		c0.9-0.1,1.8-0.3,2.7-0.5c0.3,0,0.4-0.3,0.4-0.6c0-0.2-0.3-0.4-0.5-0.4c-0.9,0.1-1.8,0.2-2.7,0.4
		C-172-163.1-172.9-163.1-173.6-162.7z"/>
	<path id="Caminho_68" class="st0" d="M-173.9-166.4c-0.2,0.1-0.3,0.3-0.3,0.5c0,0.1,0.1,0.2,0.3,0.3c0.7,0.3,1.6,0.2,2.4,0.2
		c0.9,0,1.8,0,2.7-0.1c0.3,0,0.5-0.2,0.5-0.5c0-0.3-0.2-0.5-0.5-0.5c-0.9-0.1-1.8,0-2.7,0C-172.3-166.5-173.1-166.7-173.9-166.4z"/>
	<path id="Caminho_69" class="st0" d="M-173.6-170.2c-0.2,0-0.4,0.2-0.3,0.4c0,0.1,0.1,0.2,0.2,0.3c0.7,0.4,1.6,0.4,2.3,0.6
		c0.9,0.2,1.8,0.3,2.7,0.4c0.3,0,0.5-0.2,0.5-0.4c0-0.3-0.1-0.5-0.4-0.5c-0.9-0.2-1.8-0.3-2.7-0.5C-172-170-172.8-170.3-173.6-170.2
		z"/>
	<path id="Caminho_70" class="st0" d="M-172.7-173.8c-0.2,0-0.4,0.2-0.4,0.4c0,0.1,0.1,0.2,0.2,0.3c0.6,0.5,1.5,0.7,2.2,0.9
		c0.8,0.3,1.7,0.6,2.6,0.8c0.3,0.1,0.5-0.1,0.6-0.3c0.1-0.2-0.1-0.5-0.3-0.6c-0.8-0.4-1.7-0.6-2.6-0.9
		C-171.1-173.4-171.9-173.8-172.7-173.8z"/>
	<path id="Caminho_71" class="st0" d="M-171.3-177.3c-0.2,0-0.4,0.1-0.4,0.3c0,0.1,0,0.3,0.1,0.3c0.5,0.6,1.4,0.9,2.1,1.3
		c0.8,0.4,1.6,0.8,2.4,1.2c0.2,0.1,0.5,0,0.6-0.2c0.1-0.2,0-0.5-0.2-0.6c-0.8-0.5-1.6-0.8-2.4-1.3
		C-169.8-176.6-170.5-177.1-171.3-177.3z"/>
	<path id="Caminho_72" class="st0" d="M-169.3-180.4c-0.2-0.1-0.4,0-0.5,0.2c0,0.1,0,0.3,0.1,0.4c0.4,0.7,1.2,1.1,1.8,1.6
		c0.7,0.6,1.4,1.1,2.2,1.5c0.2,0.1,0.5,0.1,0.7-0.1c0.1-0.2,0.1-0.5-0.1-0.6c-0.7-0.6-1.4-1.1-2.2-1.6
		C-167.9-179.6-168.6-180.2-169.3-180.4z"/>
	<path id="Caminho_73" class="st0" d="M-166.9-183.3c-0.2-0.1-0.4,0-0.5,0.2c-0.1,0.1-0.1,0.2,0,0.4c0.3,0.7,1,1.3,1.6,1.8
		c0.6,0.7,1.3,1.3,1.9,1.9c0.2,0.2,0.5,0.2,0.7,0c0.2-0.2,0.2-0.5,0-0.7c-0.6-0.7-1.2-1.3-1.9-1.9
		C-165.7-182.2-166.2-183-166.9-183.3z"/>
	<path id="Caminho_74" class="st0" d="M-164-185.7c-0.2-0.1-0.4-0.1-0.5,0.1c-0.1,0.1-0.1,0.2-0.1,0.4c0.2,0.8,0.8,1.4,1.3,2.1
		c0.5,0.7,1,1.5,1.6,2.1c0.2,0.2,0.5,0.2,0.7,0.1c0.2-0.2,0.2-0.4,0.1-0.6c-0.5-0.8-1-1.5-1.6-2.2C-163-184.5-163.4-185.3-164-185.7
		z"/>
	<path id="Caminho_75" class="st0" d="M-160.8-187.7c-0.1-0.2-0.4-0.2-0.5,0c-0.1,0.1-0.1,0.2-0.1,0.3c0.1,0.8,0.6,1.5,0.9,2.2
		c0.4,0.8,0.8,1.6,1.3,2.4c0.1,0.2,0.4,0.3,0.7,0.2c0.2-0.1,0.3-0.4,0.2-0.6c-0.3-0.8-0.8-1.6-1.2-2.4
		C-160-186.3-160.3-187.1-160.8-187.7z"/>
	<path id="Caminho_76" class="st0" d="M-157.4-189.1c-0.1-0.2-0.4-0.2-0.5-0.1c-0.1,0.1-0.2,0.2-0.2,0.3c-0.1,0.8,0.3,1.6,0.6,2.4
		c0.2,0.9,0.5,1.7,0.9,2.5c0.1,0.3,0.4,0.4,0.6,0.3c0.2-0.1,0.4-0.3,0.3-0.6c-0.2-0.9-0.5-1.7-0.8-2.6
		C-156.8-187.6-156.9-188.5-157.4-189.1z"/>
	<path id="Caminho_77" class="st0" d="M-153.7-190c-0.1-0.2-0.3-0.3-0.5-0.2c-0.1,0.1-0.2,0.2-0.2,0.3c-0.2,0.8,0.1,1.6,0.2,2.4
		c0.1,0.9,0.3,1.8,0.5,2.7c0,0.3,0.3,0.4,0.6,0.4c0.2,0,0.4-0.3,0.4-0.5c-0.1-0.9-0.2-1.8-0.4-2.7
		C-153.4-188.4-153.3-189.3-153.7-190z"/>
</g>
</svg>
