<svg xmlns="http://www.w3.org/2000/svg" width="124.624" height="124.623" viewBox="0 0 124.624 124.623">
  <g id="icoeduca" transform="translate(0 -0.016)">
    <path id="Caminho_236" data-name="Caminho 236" d="M104.431,238.6,63.682,225.222a8.224,8.224,0,0,0-11.033-8.361L24.2,192.275a2.076,2.076,0,0,0-3.157.531l-3.2,5.555A12.439,12.439,0,0,0,2.708,203.8l-1.038,1.8a12.46,12.46,0,0,0,4.653,17.074l31.709,16.254a8.32,8.32,0,0,0,1.5,7.008L33,257.264a2.077,2.077,0,0,0,2.337,3.044l6.507-1.744,1.743,6.507a2.076,2.076,0,0,0,1.732,1.52,2.209,2.209,0,0,0,.272.019,2.081,2.081,0,0,0,1.8-1.038l8.956-15.513,21.834,14.1a12.462,12.462,0,0,0,17.031-4.57l1.038-1.8,9.346-16.189a2.076,2.076,0,0,0-1.153-3.012ZM57.493,221.048a4.153,4.153,0,0,1,1.518,5.674l-9.346,16.2a4.154,4.154,0,0,1-7.194-4.154l9.346-16.187a4.154,4.154,0,0,1,5.686-1.532Zm-34.1-23.989,20.8,17.978L21.477,200.37ZM4.436,213.982a8.266,8.266,0,0,1,.831-6.3l1.038-1.8a8.307,8.307,0,0,1,11.259-3.094l29.788,19.236-7.576,13.126L8.3,219.025A8.245,8.245,0,0,1,4.436,213.982Zm41.858,45.169-.98-3.668a2.076,2.076,0,0,0-2.544-1.467L39.1,255l3.759-6.509a8.26,8.26,0,0,0,8.756-1.481l1.232.793Zm34.049,1.468L54.054,243.637l7.786-13.486L89.6,244.386a8.308,8.308,0,0,1,3.041,11.348l-1.038,1.8A8.309,8.309,0,0,1,80.343,260.619Zm16.91-12.876a12.4,12.4,0,0,0-5.664-7.012l-10.721-5.483,19.839,6.513Zm0,0" transform="translate(0 -141.971)" fill="#fff"/>
    <path id="Caminho_237" data-name="Caminho 237" d="M216.694,22.87l2.577-7.963a2.077,2.077,0,0,0-1.038-2.493l-7.446-3.8L206.98,1.156A2.076,2.076,0,0,0,204.487.117L196.527,2.7,188.562.125a2.076,2.076,0,0,0-2.492,1.038l-3.8,7.446-7.454,3.807c-.033.018-.057.05-.089.069H138.373A10.4,10.4,0,0,0,127.988,22.87V51.428a2.077,2.077,0,0,0,4.154,0V22.87a6.23,6.23,0,0,1,6.231-6.231h35.971l2.016,6.231-2.577,7.963a2.075,2.075,0,0,0,1.038,2.492l7.454,3.807,3.807,7.454a2.076,2.076,0,0,0,2.493,1.038l7.952-2.587,2.077.672V89.331a2.077,2.077,0,0,0,4.154,0V45.053l1.735.561a2.075,2.075,0,0,0,2.492-1.038l3.807-7.454,7.454-3.807a2.076,2.076,0,0,0,1.038-2.493Zm-4.154.639,2.238,6.918L208.3,33.736a2.069,2.069,0,0,0-.9.906l-3.313,6.475-6.92-2.238a2.05,2.05,0,0,0-1.277,0l-6.92,2.238-3.309-6.475a2.068,2.068,0,0,0-.906-.906l-6.475-3.309,2.238-6.918a2.028,2.028,0,0,0,0-1.279l-2.238-6.918L184.755,12a2.071,2.071,0,0,0,.906-.9l3.309-6.476,6.92,2.239a2.065,2.065,0,0,0,1.277,0l6.92-2.239L207.4,11.1a2.072,2.072,0,0,0,.9.9l6.475,3.309-2.239,6.918a2.086,2.086,0,0,0,0,1.279Zm0,0" transform="translate(-94.761 0)" fill="#fff"/>
    <path id="Caminho_238" data-name="Caminho 238" d="M362.373,48.047a10.385,10.385,0,1,0,10.385,10.385A10.384,10.384,0,0,0,362.373,48.047Zm0,16.615a6.231,6.231,0,1,1,6.231-6.231A6.231,6.231,0,0,1,362.373,64.662Zm0,0" transform="translate(-260.607 -35.561)" fill="#fff"/>
    <path id="Caminho_239" data-name="Caminho 239" d="M194.065,196.2h35.308a2.077,2.077,0,1,0,0-4.154H194.065a2.077,2.077,0,0,0,0,4.154Zm0,0" transform="translate(-142.145 -142.177)" fill="#fff"/>
    <path id="Caminho_240" data-name="Caminho 240" d="M247.142,232.047H218.065a2.077,2.077,0,0,0,0,4.154h29.077a2.077,2.077,0,0,0,0-4.154Zm0,0" transform="translate(-159.914 -171.792)" fill="#fff"/>
    <path id="Caminho_241" data-name="Caminho 241" d="M288.6,272.047H274.065a2.077,2.077,0,1,0,0,4.154H288.6a2.077,2.077,0,1,0,0-4.154Zm0,0" transform="translate(-201.376 -201.408)" fill="#fff"/>
    <path id="Caminho_242" data-name="Caminho 242" d="M198.219,116.2h12.462a2.077,2.077,0,1,0,0-4.154H198.219a6.231,6.231,0,0,0,0,12.462h12.462a2.077,2.077,0,1,0,0-4.154H198.219a2.077,2.077,0,1,1,0-4.154Zm0,0" transform="translate(-142.145 -82.946)" fill="#fff"/>
  </g>
</svg>
