<svg xmlns="http://www.w3.org/2000/svg" xmlns:xlink="http://www.w3.org/1999/xlink" width="126" height="126" viewBox="0 0 126 126">
  <defs>
    <clipPath id="clip-path">
      <circle id="Elipse_2" data-name="Elipse 2" cx="63" cy="63" r="63" transform="translate(131 9.974)" fill="#fff"/>
    </clipPath>
  </defs>
  <g id="icofaq" transform="translate(-131 -9.974)" clip-path="url(#clip-path)">
    <path id="ico_faq" d="M-19.969,8.83A62.969,62.969,0,0,0-82.931,71.792a62.969,62.969,0,0,0,62.962,62.962A62.969,62.969,0,0,0,42.993,71.792,62.959,62.959,0,0,0-19.969,8.83Zm.706,113.454h-21.76V99.25h21.76ZM7.626,62.24a23.27,23.27,0,0,1-8.784,9.767,47.788,47.788,0,0,1-6.327,3.655c-2.15,1.029-4.146,2.058-5.974,3.087a22.662,22.662,0,0,0-4.5,3.225A5.3,5.3,0,0,0-19.708,85.9h-21.76c0-1.966.092-3.9.276-5.82a18.464,18.464,0,0,1,1.4-5.482,17.64,17.64,0,0,1,3.363-4.991A22.06,22.06,0,0,1-30.4,65.266c1.029-.568,2.5-1.305,4.423-2.242a44.913,44.913,0,0,0,5.759-3.378,25.273,25.273,0,0,0,4.991-4.423,8.163,8.163,0,0,0,2.1-5.406,6.092,6.092,0,0,0-2.534-5.129,9.6,9.6,0,0,0-5.9-1.889,8.95,8.95,0,0,0-4.346.983,13.051,13.051,0,0,0-3.163,2.38A17.251,17.251,0,0,0-31.3,49.049a22.027,22.027,0,0,1-1.751,2.457l-17-12.086A28.078,28.078,0,0,1-38.535,26.076,33.991,33.991,0,0,1-20.553,21.3,39.726,39.726,0,0,1-9.742,22.851a29.355,29.355,0,0,1,9.9,4.914A24.668,24.668,0,0,1,7.319,36.61a29.575,29.575,0,0,1,2.733,13.345A29.357,29.357,0,0,1,7.626,62.24Z" transform="translate(213.931 1.219)" fill="#fff"/>
  </g>
</svg>
