<?xml version="1.0" encoding="utf-8"?>
<!-- Generator: Adobe Illustrator 24.1.0, SVG Export Plug-In . SVG Version: 6.00 Build 0)  -->
<svg version="1.1" id="Camada_1" xmlns="http://www.w3.org/2000/svg" xmlns:xlink="http://www.w3.org/1999/xlink" x="0px" y="0px"
	 viewBox="0 0 126 126" style="enable-background:new 0 0 126 126;" xml:space="preserve">
<style type="text/css">
	.st0{fill:#FFFFFF;}
</style>
<g id="icofaq" transform="translate(-131 -9.974)">
	<path id="ico_faq" class="st0" d="M194,10c-34.8,0-63,28.2-63,63c0,34.8,28.2,63,63,63c34.8,0,63-28.2,63-63
		C257,38.2,228.8,10,194,10C194,10,194,10,194,10z M194.7,123.5h-21.8v-23h21.8V123.5z M221.6,63.4c-1.9,4-5,7.4-8.8,9.8
		c-2,1.4-4.1,2.6-6.3,3.7c-2.1,1-4.1,2.1-6,3.1c-1.6,0.9-3.1,2-4.5,3.2c-1.1,1-1.7,2.4-1.7,3.9h-21.8c0-2,0.1-3.9,0.3-5.8
		c0.2-1.9,0.7-3.7,1.4-5.5c0.8-1.8,2-3.5,3.4-5c1.7-1.8,3.8-3.2,6-4.3c1-0.6,2.5-1.3,4.4-2.2c2-1,3.9-2.1,5.8-3.4
		c1.9-1.2,3.5-2.7,5-4.4c1.3-1.5,2.1-3.4,2.1-5.4c0.1-2-0.9-3.9-2.5-5.1c-1.7-1.3-3.8-1.9-5.9-1.9c-1.5,0-3,0.3-4.3,1
		c-1.2,0.6-2.2,1.4-3.2,2.4c-0.8,0.9-1.6,1.8-2.2,2.9c-0.5,0.9-1.1,1.7-1.8,2.5l-17-12.1c2.3-5.6,6.3-10.2,11.5-13.3
		c5.4-3.2,11.7-4.9,18-4.8c3.7,0,7.3,0.5,10.8,1.6c3.6,1,6.9,2.7,9.9,4.9c3,2.3,5.5,5.4,7.2,8.8c1.9,4.2,2.9,8.7,2.7,13.3
		C224.1,55.4,223.3,59.5,221.6,63.4z"/>
</g>
</svg>
