<svg xmlns="http://www.w3.org/2000/svg" width="112.235" height="112.253" viewBox="0 0 112.235 112.253">
  <g id="icofacebook" transform="translate(89.01 29.32)">
    <path id="Caminho_165" data-name="Caminho 165" d="M-52.426,32.2l-1.414.218,1.414-.218Zm0,0" transform="translate(28.589 50.008)" fill="#fff"/>
    <path id="Caminho_166" data-name="Caminho 166" d="M-52.139,32.09l-.671.109c.218-.018.453-.073.671-.109Zm0,0" transform="translate(29.426 49.918)" fill="#fff"/>
    <path id="Caminho_167" data-name="Caminho 167" d="M-53.79,32.4l-1.65.163c.562-.054,1.106-.109,1.65-.163Zm0,0" transform="translate(27.288 50.17)" fill="#fff"/>
    <path id="Caminho_168" data-name="Caminho 168" d="M-53.572,32.33c-.272.036-.526.073-.8.091.254-.036.526-.054.8-.091Zm0,0" transform="translate(28.158 50.113)" fill="#fff"/>
    <path id="Caminho_169" data-name="Caminho 169" d="M-51.332,31.92c-.2.036-.4.091-.6.127.2-.036.4-.073.6-.127Zm0,0" transform="translate(30.141 49.78)" fill="#fff"/>
    <path id="Caminho_170" data-name="Caminho 170" d="M-49.3,31.41c-.163.054-.326.091-.471.127a4.539,4.539,0,0,1,.471-.127Zm0,0" transform="translate(31.897 49.365)" fill="#fff"/>
    <path id="Caminho_171" data-name="Caminho 171" d="M-49.9,31.58c-.181.054-.344.091-.526.127.181-.036.344-.091.526-.127Zm0,0" transform="translate(31.36 49.504)" fill="#fff"/>
    <path id="Caminho_172" data-name="Caminho 172" d="M-50.718,31.78c-.181.036-.363.091-.562.127a5.106,5.106,0,0,0,.562-.127Zm0,0" transform="translate(30.669 49.666)" fill="#fff"/>
    <path id="Caminho_173" data-name="Caminho 173" d="M-55.052,32.49c-.29.018-.6.054-.888.073.308-.018.6-.054.888-.073Zm0,0" transform="translate(26.882 50.243)" fill="#fff"/>
    <path id="Caminho_174" data-name="Caminho 174" d="M23.225,26.806A56.135,56.135,0,0,0-32.9-29.32,56.12,56.12,0,0,0-89.01,26.806,56.135,56.135,0,0,0-32.884,82.933c.326,0,.653,0,.979-.018V39.243H-43.96V25.175H-31.9V14.841c0-11.983,7.324-18.528,18.02-18.528a101.89,101.89,0,0,1,10.8.544V9.385h-7.378c-5.819,0-6.943,2.774-6.943,6.816v8.956H-3.479l-1.813,14.05H-17.4V80.757A56.13,56.13,0,0,0,23.225,26.806Zm0,0" transform="translate(0)" fill="#fff"/>
    <path id="Caminho_175" data-name="Caminho 175" d="M-55.222,32.53c-.58.036-1.178.073-1.758.091.6-.018,1.178-.054,1.758-.091Zm0,0" transform="translate(26.036 50.276)" fill="#fff"/>
    <path id="Caminho_176" data-name="Caminho 176" d="M-56.575,32.58c-.308.018-.616.018-.925.018.29,0,.616,0,.925-.018Zm0,0" transform="translate(25.613 50.316)" fill="#fff"/>
  </g>
</svg>
