<?xml version="1.0" encoding="utf-8"?>
<!-- Generator: Adobe Illustrator 24.1.0, SVG Export Plug-In . SVG Version: 6.00 Build 0)  -->
<svg version="1.1" id="Camada_1" xmlns="http://www.w3.org/2000/svg" xmlns:xlink="http://www.w3.org/1999/xlink" x="0px" y="0px"
	 viewBox="0 0 400 400" style="enable-background:new 0 0 400 400;" xml:space="preserve">
<path d="M200,3C91.2,3,3,91.2,3,200s88.2,197,197,197s197-88.2,197-197S308.8,3,200,3z M255,122.7c0,0-18.6,0-26,0
	c-9.2,0-11.1,3.7-11.1,13.2c0,7.9,0,22.9,0,22.9h37l-3.6,40.2h-33.5v120.1h-48V199.5H145v-40.7H170c0,0,0-5.9,0-32.1
	c0-30.1,16.1-45.8,51.8-45.8c5.8,0,33.2,0,33.2,0V122.7z"/>
</svg>
