<svg xmlns="http://www.w3.org/2000/svg" width="118.263" height="117.924" viewBox="0 0 118.263 117.924">
  <g id="icoglobal" transform="translate(-1.829 -2)">
    <path id="Caminho_243" data-name="Caminho 243" d="M55.741,37.109H55.9a1.965,1.965,0,0,0,1.965-1.828A37.573,37.573,0,0,0,58,31.488V28.265a1.97,1.97,0,1,0-3.931.255v2.968a31.451,31.451,0,0,1-.138,3.518A1.965,1.965,0,0,0,55.741,37.109Z" transform="translate(50.295 23.577)" fill="#fff"/>
    <path id="Caminho_244" data-name="Caminho 244" d="M58.749,104.062c-1.336,0-2.457.138-3.518.138H53.265V98.3a1.965,1.965,0,0,0-.983-1.71L38.525,88.732a2.033,2.033,0,0,0-3.007,1.592l-.786,9.453a50.038,50.038,0,0,1-8.078-4.7l-.9-15.527,9.021-7.233a1.965,1.965,0,0,0,.806-1.533V55.065a1.965,1.965,0,0,0-.472-1.278L24.748,41.72l9.945-6.643a1.965,1.965,0,0,0,.786-2.26L31.548,21.025a1.965,1.965,0,0,0-.983-1.12l-6.132-3.086a49.449,49.449,0,0,1,13.5-7.744l5.778,9.65a1.958,1.958,0,0,0,2.653.708L67.534,7.523a48.938,48.938,0,0,1,7.744,2.732L59.928,22.047a1.965,1.965,0,0,0-.2,2.948l9.552,9.532L54.6,39.421a1.965,1.965,0,0,0-1.258,1.336L49.413,54.515a1.965,1.965,0,0,0,1.2,2.378l13.4,5.012L49.669,83.524a1.98,1.98,0,0,0,1.4,3.086l4.363.55h.256a1.969,1.969,0,1,0,.236-3.931L54.7,83.072,68.654,62.121a1.964,1.964,0,0,0-.943-2.928L53.678,53.945l3.164-11.026,16.706-5.542a1.965,1.965,0,0,0,.766-3.263l-10.22-10.2,15.074-11.6a49.135,49.135,0,0,1,8.9,6.309,1.965,1.965,0,1,0,2.634-2.909A52.849,52.849,0,0,0,80.034,8.269h-.118A53.065,53.065,0,1,0,55.231,108.13a33.4,33.4,0,0,0,3.813-.157,1.971,1.971,0,0,0-.295-3.931Zm-19.5-10.377,10.082,5.759v4.383A47.718,47.718,0,0,1,38.6,101.291ZM61.54,6.383,46.111,15.07,41.748,7.9A49.134,49.134,0,0,1,55.231,5.931a48.152,48.152,0,0,1,6.309.452ZM6.1,55.065A48.938,48.938,0,0,1,21.249,19.688l6.82,3.42,3.2,9.591L20.738,39.735a1.954,1.954,0,0,0-.413,2.909L31.646,55.792V69.845l-9.08,7.272a1.965,1.965,0,0,0-.747,1.651l.766,12.972A49.134,49.134,0,0,1,6.1,55.065Z" fill="#fff"/>
    <path id="Caminho_245" data-name="Caminho 245" d="M79.342,11H63.619A21.619,21.619,0,0,0,42,32.619V36.55a1.917,1.917,0,0,0,3.027,1.612h0l11.321-7.508h9.237a1.965,1.965,0,1,0,0-3.931H62.243L70.6,21.161a1.965,1.965,0,0,0-2.162-3.282l-2.85,1.965v-.983a1.965,1.965,0,1,0-3.931,0V22.4l-3.931,2.614V22.792a1.965,1.965,0,1,0-3.931,0v4.835l-7.862,5.248v-.256A17.688,17.688,0,0,1,63.619,14.931H77.377V16.9A17.688,17.688,0,0,1,59.688,34.585H57.723a1.965,1.965,0,0,0,0,3.931h1.965A21.619,21.619,0,0,0,81.308,16.9V12.965A1.965,1.965,0,0,0,79.342,11Z" transform="translate(38.781 8.688)" fill="#fff"/>
    <path id="Caminho_246" data-name="Caminho 246" d="M61.481,32a29.225,29.225,0,0,0-17.688,5.9,1.965,1.965,0,0,0,2.358,3.145,25.908,25.908,0,1,1-5.11,5.169A1.983,1.983,0,0,0,37.9,43.792,29.481,29.481,0,1,0,61.481,32Z" transform="translate(29.127 28.961)" fill="#fff"/>
    <path id="Caminho_247" data-name="Caminho 247" d="M56.022,37.541a1.965,1.965,0,0,0-2.752-.472l-6.427,4.5a1.965,1.965,0,0,0-.491,2.732l4.5,6.446a1.968,1.968,0,1,0,3.223-2.26l-1.749-2.5A11.792,11.792,0,0,1,59.756,56.94a1.965,1.965,0,1,0,3.931,0A15.723,15.723,0,0,0,53,42.062l2.535-1.788A1.965,1.965,0,0,0,56.022,37.541Z" transform="translate(42.644 33.502)" fill="#fff"/>
    <path id="Caminho_248" data-name="Caminho 248" d="M36.5,56.563a1.965,1.965,0,0,0,.943,2.614L44.56,62.5a2.1,2.1,0,0,0,.845.177,1.965,1.965,0,0,0,1.769-1.14L50.5,54.421a1.953,1.953,0,0,0-3.557-1.612L45.66,55.58a12.244,12.244,0,0,1-.138-1.749,11.792,11.792,0,0,1,5.9-10.2,1.965,1.965,0,1,0-1.965-3.4,15.723,15.723,0,0,0-7.862,13.6,14.7,14.7,0,0,0,.354,3.086L39.116,55.6a1.965,1.965,0,0,0-2.614.963Z" transform="translate(33.293 36.611)" fill="#fff"/>
    <path id="Caminho_249" data-name="Caminho 249" d="M42.768,55.517a1.965,1.965,0,0,0,.708,2.673,15.585,15.585,0,0,0,18.239-1.808l.275,3.125a1.965,1.965,0,0,0,1.965,1.788h.177a1.965,1.965,0,0,0,1.788-2.123l-.688-7.862a1.965,1.965,0,0,0-2.1-1.808l-7.862.688A1.963,1.963,0,1,0,55.6,54.1l3.027-.255a11.792,11.792,0,0,1-13.168.943,1.965,1.965,0,0,0-2.693.727Z" transform="translate(39.27 45.853)" fill="#fff"/>
  </g>
</svg>
