<?xml version="1.0" encoding="utf-8"?>
<!-- Generator: Adobe Illustrator 24.1.0, SVG Export Plug-In . SVG Version: 6.00 Build 0)  -->
<svg version="1.1" id="Camada_1" xmlns="http://www.w3.org/2000/svg" xmlns:xlink="http://www.w3.org/1999/xlink" x="0px" y="0px"
	 viewBox="0 0 99 99" style="enable-background:new 0 0 99 99;" xml:space="preserve">
<style type="text/css">
	.st0{fill:#FFFFFF;}
</style>
<g id="icotourism" transform="translate(-1 -1)">
	<path id="Caminho_263" class="st0" d="M42.5,39.5v-1.8c0-2-1.3-3.8-3.2-4.5v-9.9h3.2c1.8,0,3.2-1.4,3.2-3.2V17
		c0-1.8-1.4-3.2-3.2-3.2H7.4c-1.8,0-3.2,1.4-3.2,3.2v3.2c0,1.8,1.4,3.2,3.2,3.2h3.2v9.9c-1.9,0.7-3.2,2.5-3.2,4.5v1.8
		c-3.7,0.8-6.4,4-6.4,7.8v38.3C1,89,3.1,92,6.3,93.1c-0.3,0.7-0.5,1.4-0.5,2.1c0,2.6,2.1,4.8,4.8,4.8s4.8-2.1,4.8-4.8
		c0-0.5-0.1-1.1-0.3-1.6h19.7c-0.2,0.5-0.3,1.1-0.3,1.6c0,2.6,2.1,4.8,4.8,4.8s4.8-2.1,4.8-4.8l0,0c0-0.7-0.2-1.4-0.5-2.1
		c3.2-1.1,5.3-4.1,5.3-7.5V47.3C48.9,43.5,46.2,40.2,42.5,39.5L42.5,39.5z M36.1,32.9h-3.2v-9.6h3.2L36.1,32.9z M29.7,23.4v9.6h-9.6
		v-9.6L29.7,23.4z M7.4,17h35.1v3.2H7.4V17z M17,23.4v9.6h-3.2v-9.6L17,23.4z M12.2,36.1h25.5c0.9,0,1.6,0.7,1.6,1.6v1.6H10.6v-1.6
		C10.6,36.8,11.3,36.1,12.2,36.1L12.2,36.1z M9,42.5h31.9c2.6,0,4.8,2.1,4.8,4.8V84h-3.2V66.5c0-2.6-2.1-4.8-4.8-4.8
		s-4.8,2.1-4.8,4.8V84h-3.2V66.5c0-2.6-2.1-4.8-4.8-4.8s-4.8,2.1-4.8,4.8V84H17V66.5c0-2.6-2.1-4.8-4.8-4.8s-4.8,2.1-4.8,4.8V84H4.2
		V47.3C4.2,44.7,6.3,42.5,9,42.5z M39.3,84h-3.2V66.5c0.1-0.9,0.8-1.6,1.7-1.5c0.8,0,1.4,0.7,1.5,1.5V84z M26.5,84h-3.2V66.5
		c0.1-0.9,0.8-1.6,1.7-1.5c0.8,0,1.4,0.7,1.5,1.5L26.5,84z M13.8,84h-3.2V66.5c0.1-0.9,0.8-1.6,1.7-1.5c0.8,0,1.4,0.7,1.5,1.5
		L13.8,84z M12.2,95.2c0,0.9-0.7,1.6-1.6,1.6c-0.9,0-1.6-0.7-1.6-1.6c0-0.9,0.7-1.6,1.6-1.6h0C11.5,93.6,12.2,94.3,12.2,95.2
		C12.2,95.2,12.2,95.2,12.2,95.2L12.2,95.2z M39.3,96.8c-0.9,0-1.6-0.7-1.6-1.6s0.7-1.6,1.6-1.6c0.9,0,1.6,0.7,1.6,1.6l0,0
		C40.9,96.1,40.2,96.8,39.3,96.8L39.3,96.8z M40.9,90.4H9c-2,0-3.8-1.3-4.5-3.2h40.9C44.7,89.1,42.9,90.4,40.9,90.4L40.9,90.4z"/>
	<path id="Caminho_264" class="st0" d="M12.2,58.5h25.5c2.6,0,4.8-2.1,4.8-4.8v-3.2c0-2.6-2.1-4.8-4.8-4.8H12.2
		c-2.6,0-4.8,2.1-4.8,4.8v3.2C7.4,56.3,9.5,58.5,12.2,58.5z M10.6,50.5c0-0.9,0.7-1.6,1.6-1.6h25.5c0.9,0,1.6,0.7,1.6,1.6v3.2
		c0,0.9-0.7,1.6-1.6,1.6H12.2c-0.9,0-1.6-0.7-1.6-1.6V50.5z"/>
	<path id="Caminho_265" class="st0" d="M98.4,38.8v-17c0-4.4-3.6-8-8-8h-1.6C88.8,6.7,83.1,1,76,1S63.3,6.7,63.3,13.8h-1.6
		c-4.4,0-8,3.6-8,8v17c-1.1,2.7-1.6,5.6-1.6,8.5v9.6c0,4.4,3.6,8,8,8h1.6V92c0,4.4,3.5,8,7.9,8c2.5,0,4.9-1.2,6.4-3.2
		c2.6,3.5,7.6,4.3,11.1,1.7c2-1.5,3.3-3.9,3.2-6.4V64.9H92c4.4,0,8-3.6,8-8v-9.6C100,44.4,99.5,41.5,98.4,38.8z M90.4,17
		c2.6,0,4.8,2.1,4.8,4.8V33c-3-4.1-7.3-7.1-12.1-8.6c2.6-1.7,4.5-4.4,5.3-7.4H90.4z M88.8,45.7c0,0.9-0.7,1.6-1.6,1.6H84
		c-0.9,0-1.6-0.7-1.6-1.6V32.9c1-1.4,1.6-3,1.6-4.7c1.7,0.7,3.3,1.7,4.8,2.8L88.8,45.7z M63.3,45.7V31c1.5-1.2,3.1-2.1,4.8-2.8
		c0,1.7,0.6,3.4,1.6,4.7v12.8c0,0.9-0.7,1.6-1.6,1.6h-3.2C64,47.3,63.3,46.6,63.3,45.7L63.3,45.7z M71.3,28.1v-1
		c3.1-0.8,6.4-0.8,9.6,0v1c0,2.6-2.1,4.8-4.8,4.8S71.3,30.8,71.3,28.1C71.3,28.1,71.3,28.1,71.3,28.1z M76,4.2
		c5.3,0,9.6,4.3,9.6,9.6s-4.3,9.6-9.6,9.6c-5.3,0-9.6-4.3-9.6-9.6C66.5,8.5,70.8,4.2,76,4.2L76,4.2z M56.9,21.8
		c0-2.6,2.1-4.8,4.8-4.8h2c0.8,3.1,2.7,5.7,5.3,7.4c-4.8,1.5-9.1,4.5-12.1,8.6V21.8z M60.1,61.7c-2.6,0-4.8-2.1-4.8-4.8v-9.6
		c0-4.8,1.7-9.5,4.8-13.2v11.6c0,1.4,0.6,2.6,1.6,3.5v12.4H60.1z M87.2,92c0,2.6-2.1,4.8-4.8,4.8c-2.6,0-4.8-2.1-4.8-4.8V56.9h-3.2
		V92c0,2.6-2.1,4.8-4.8,4.8s-4.8-2.1-4.8-4.8V50.5h3.2c2.6,0,4.8-2.1,4.8-4.8V35.5c2,0.9,4.4,0.9,6.4,0v10.3c0,2.6,2.1,4.8,4.8,4.8
		h3.2V92z M96.8,56.9c0,2.6-2.1,4.8-4.8,4.8h-1.6V49.3c1-0.9,1.6-2.2,1.6-3.5V34.1c3.1,3.7,4.8,8.4,4.8,13.2V56.9z"/>
</g>
</svg>
