<svg xmlns="http://www.w3.org/2000/svg" width="105.437" height="119.676" viewBox="0 0 105.437 119.676">
  <g id="icoinvest" transform="translate(-0.36)">
    <path id="Caminho_257" data-name="Caminho 257" d="M194.585,176.243a1.868,1.868,0,0,0-.673-.023,4.463,4.463,0,0,1-3.947-4.425,1.963,1.963,0,0,0-3.926,0,8.4,8.4,0,0,0,6.175,8.086v1.963a1.963,1.963,0,1,0,3.926,0V180a8.383,8.383,0,0,0-1.718-16.587,4.457,4.457,0,1,1,4.457-4.457,1.963,1.963,0,1,0,3.926,0,8.4,8.4,0,0,0-6.665-8.206v-1.787a1.963,1.963,0,1,0-3.926,0v1.906a8.382,8.382,0,0,0,2.208,16.468,4.454,4.454,0,0,1,.163,8.905Zm0,0" transform="translate(-140.117 -110.929)" fill="#fff"/>
    <path id="Caminho_258" data-name="Caminho 258" d="M104.2,134.958a28.466,28.466,0,1,0,28.466-28.466A28.465,28.465,0,0,0,104.2,134.958Zm28.466-24.54a24.54,24.54,0,1,1-24.54,24.54A24.539,24.539,0,0,1,132.661,110.418Zm0,0" transform="translate(-78.356 -80.361)" fill="#fff"/>
    <path id="Caminho_259" data-name="Caminho 259" d="M92.448,334.178,77.07,341.443a12.525,12.525,0,0,0-10.678-6.589l-14.2-.39a14.992,14.992,0,0,1-6.452-1.666L44.3,332.05a25.478,25.478,0,0,0-23.6.025l.09-3.272a1.963,1.963,0,0,0-1.908-2.017l-15.566-.428A1.962,1.962,0,0,0,1.3,328.265l-.94,34.159a1.963,1.963,0,0,0,1.908,2.017l15.566.428h.054a1.963,1.963,0,0,0,1.963-1.909l.045-1.634,4.044-2.165a6.937,6.937,0,0,1,5.177-.566l24.149,6.778c.042.012.084.022.127.032a25.846,25.846,0,0,0,5.307.547,26.192,26.192,0,0,0,10.941-2.388,1.829,1.829,0,0,0,.243-.134L104.9,340.782a1.964,1.964,0,0,0,.643-2.615A9.916,9.916,0,0,0,92.448,334.178ZM4.34,360.571l.832-30.235,11.641.32-.832,30.236Zm63.535-.514a22.257,22.257,0,0,1-13.611,1.519l-24.083-6.76a10.854,10.854,0,0,0-8.092.885l-2.067,1.107.553-20.1A21.578,21.578,0,0,1,42.5,335.536l1.444.749a18.959,18.959,0,0,0,8.149,2.1l14.2.39a8.61,8.61,0,0,1,8.183,6.861l-21.146-.584a1.963,1.963,0,1,0-.108,3.925l23.336.642h.055a1.963,1.963,0,0,0,1.961-1.909,12.458,12.458,0,0,0-.19-2.547l15.772-7.452.046-.022a6,6,0,0,1,6.782.95Zm0,0" transform="translate(0 -246.276)" fill="#fff"/>
    <path id="Caminho_260" data-name="Caminho 260" d="M216.129,20.612V1.963a1.963,1.963,0,0,0-3.926,0V20.612a1.963,1.963,0,0,0,3.926,0Zm0,0" transform="translate(-159.861)" fill="#fff"/>
    <path id="Caminho_261" data-name="Caminho 261" d="M276.129,50.8V41.963a1.963,1.963,0,0,0-3.926,0V50.8a1.963,1.963,0,0,0,3.926,0Zm0,0" transform="translate(-205.139 -30.185)" fill="#fff"/>
    <path id="Caminho_262" data-name="Caminho 262" d="M156.129,50.8V41.963a1.963,1.963,0,1,0-3.926,0V50.8a1.963,1.963,0,1,0,3.926,0Zm0,0" transform="translate(-114.584 -30.185)" fill="#fff"/>
  </g>
</svg>
