<svg xmlns="http://www.w3.org/2000/svg" width="118.986" height="118.986" viewBox="0 0 118.986 118.986">
  <g id="icoinstagram" transform="translate(15.28 82.9)">
    <path id="Caminho_177" data-name="Caminho 177" d="M32.46-46.55A11.4,11.4,0,0,1,21.07-35.16,11.4,11.4,0,0,1,9.68-46.55,11.4,11.4,0,0,1,21.07-57.94,11.387,11.387,0,0,1,32.46-46.55Zm0,0" transform="translate(23.143 23.143)" fill="#fff"/>
    <path id="Caminho_178" data-name="Caminho 178" d="M55.7-58.707a10.46,10.46,0,0,0-2.563-3.932A10.7,10.7,0,0,0,49.2-65.2a19.009,19.009,0,0,0-6.341-1.176c-3.6-.173-4.683-.193-13.8-.193s-10.195.039-13.8.193A19.009,19.009,0,0,0,8.923-65.2a10.46,10.46,0,0,0-3.932,2.563,10.7,10.7,0,0,0-2.563,3.932,19.009,19.009,0,0,0-1.176,6.341c-.173,3.6-.193,4.683-.193,13.8s.039,10.195.193,13.8a19.009,19.009,0,0,0,1.176,6.341A10.46,10.46,0,0,0,4.992-14.5a10.7,10.7,0,0,0,3.932,2.563,19.009,19.009,0,0,0,6.341,1.176c3.6.173,4.683.193,13.8.193s10.195-.039,13.8-.193A19.009,19.009,0,0,0,49.2-11.933a11.282,11.282,0,0,0,6.475-6.475,19.009,19.009,0,0,0,1.176-6.341c.173-3.6.193-4.683.193-13.8s-.039-10.195-.193-13.8a18.79,18.79,0,0,0-1.156-6.36Zm-26.634,37.7A17.527,17.527,0,0,1,11.525-38.548,17.54,17.54,0,0,1,29.062-56.086,17.527,17.527,0,0,1,46.6-38.548,17.527,17.527,0,0,1,29.062-21.011ZM47.294-52.694a4.108,4.108,0,0,1-4.1-4.1,4.108,4.108,0,0,1,4.1-4.1,4.1,4.1,0,0,1,4.1,4.1,4.1,4.1,0,0,1-4.1,4.1Zm0,0" transform="translate(15.151 15.141)" fill="#fff"/>
    <path id="Caminho_179" data-name="Caminho 179" d="M44.213-82.9A59.491,59.491,0,0,0-15.28-23.407,59.491,59.491,0,0,0,44.213,36.086a59.491,59.491,0,0,0,59.493-59.493A59.491,59.491,0,0,0,44.213-82.9ZM78.171-9.338a25.557,25.557,0,0,1-1.58,8.287,17.443,17.443,0,0,1-9.983,9.983,24.769,24.769,0,0,1-8.287,1.58c-3.642.173-4.8.212-14.088.212-9.27,0-10.446-.039-14.088-.212a25.557,25.557,0,0,1-8.287-1.58A17.019,17.019,0,0,1,15.806,5a16.762,16.762,0,0,1-3.932-6.051,24.769,24.769,0,0,1-1.58-8.287c-.173-3.642-.212-4.8-.212-14.088s.039-10.445.212-14.088a25.556,25.556,0,0,1,1.58-8.287,16.811,16.811,0,0,1,3.951-6.051,16.762,16.762,0,0,1,6.051-3.932,24.769,24.769,0,0,1,8.287-1.58c3.642-.173,4.8-.212,14.088-.212s10.446.039,14.088.212a25.557,25.557,0,0,1,8.287,1.58,16.811,16.811,0,0,1,6.051,3.951,16.762,16.762,0,0,1,3.932,6.051,24.769,24.769,0,0,1,1.58,8.287c.173,3.642.212,4.8.212,14.088s-.058,10.426-.231,14.069Zm0,0" fill="#fff"/>
  </g>
</svg>
