<?xml version="1.0" encoding="utf-8"?>
<!-- Generator: Adobe Illustrator 24.1.0, SVG Export Plug-In . SVG Version: 6.00 Build 0)  -->
<svg version="1.1" id="Camada_1" xmlns="http://www.w3.org/2000/svg" xmlns:xlink="http://www.w3.org/1999/xlink" x="0px" y="0px"
	 viewBox="0 0 400 400" style="enable-background:new 0 0 400 400;" xml:space="preserve">
<g>
	<ellipse transform="matrix(0.3827 -0.9239 0.9239 0.3827 -61.3132 308.2401)" cx="200" cy="200" rx="36" ry="36"/>
	<path d="M284.2,136.3c-2-5-4.3-8.6-8.1-12.4c-3.8-3.8-7.4-6.1-12.4-8.1c-3.8-1.5-9.5-3.2-20.1-3.7c-11.4-0.5-14.8-0.6-43.6-0.6
		c-28.8,0-32.3,0.1-43.6,0.6c-10.5,0.5-16.3,2.2-20.1,3.7c-5,2-8.6,4.3-12.4,8.1c-3.8,3.8-6.1,7.4-8.1,12.4
		c-1.5,3.8-3.2,9.5-3.7,20.1c-0.5,11.4-0.6,14.8-0.6,43.6c0,28.8,0.1,32.3,0.6,43.6c0.5,10.5,2.2,16.3,3.7,20.1
		c2,5,4.3,8.6,8.1,12.4c3.8,3.8,7.4,6.1,12.4,8.1c3.8,1.5,9.5,3.2,20.1,3.7c11.4,0.5,14.8,0.6,43.6,0.6c28.8,0,32.3-0.1,43.6-0.6
		c10.5-0.5,16.3-2.2,20.1-3.7c5-2,8.6-4.3,12.4-8.1c3.8-3.8,6.1-7.4,8.1-12.4c1.5-3.8,3.2-9.5,3.7-20.1c0.5-11.4,0.6-14.8,0.6-43.6
		c0-28.8-0.1-32.3-0.6-43.6C287.4,145.8,285.7,140.1,284.2,136.3z M200,255.5c-30.6,0-55.5-24.8-55.5-55.5
		c0-30.6,24.8-55.5,55.5-55.5c30.6,0,55.5,24.8,55.5,55.5C255.5,230.6,230.6,255.5,200,255.5z M257.7,155.3c-7.2,0-13-5.8-13-13
		c0-7.2,5.8-13,13-13c7.2,0,13,5.8,13,13C270.6,149.5,264.8,155.3,257.7,155.3z"/>
	<path d="M200,3L200,3C91.2,3,3,91.2,3,200s88.2,197,197,197h0c108.8,0,197-88.2,197-197S308.8,3,200,3z M307.4,244.5
		c-0.5,11.5-2.4,19.3-5,26.2c-2.8,7.1-6.5,13.1-12.5,19.1c-6,6-12,9.7-19.1,12.5c-6.9,2.7-14.7,4.5-26.2,5
		c-11.5,0.5-15.2,0.6-44.5,0.6c-29.3,0-33-0.1-44.5-0.6c-11.5-0.5-19.3-2.4-26.2-5c-7.1-2.8-13.1-6.5-19.1-12.5
		c-6-6-9.7-12-12.5-19.1c-2.7-6.9-4.5-14.7-5-26.2C92.1,233,92,229.3,92,200s0.1-33,0.7-44.5c0.5-11.5,2.3-19.3,5-26.2
		c2.8-7.1,6.5-13.1,12.5-19.1c6-6,12-9.7,19.1-12.5c6.9-2.7,14.7-4.5,26.2-5C167,92.1,170.7,92,200,92c29.3,0,33,0.1,44.5,0.7
		c11.5,0.5,19.3,2.4,26.2,5c7.1,2.8,13.1,6.5,19.1,12.5c6,6,9.7,12,12.5,19.1c2.7,6.9,4.5,14.7,5,26.2c0.5,11.5,0.6,15.2,0.6,44.5
		S307.9,233,307.4,244.5z"/>
</g>
</svg>
