<svg xmlns="http://www.w3.org/2000/svg" width="124.005" height="121.924" viewBox="0 0 124.005 121.924">
  <g id="icoinovation" transform="translate(-1.977 -2)">
    <g id="Grupo_151" data-name="Grupo 151" transform="translate(1.977 2)">
      <path id="Caminho_250" data-name="Caminho 250" d="M45.16,45.193a6.1,6.1,0,0,0,6.1-6.1V35.032A2.032,2.032,0,0,0,49.225,33H41.1A6.1,6.1,0,0,0,35,39.1v4.064a2.032,2.032,0,0,0,2.032,2.032Zm-6.1-6.1A2.032,2.032,0,0,1,41.1,37.064h6.1V39.1a2.032,2.032,0,0,1-2.032,2.032h-6.1Z" transform="translate(32.106 29.995)" fill="#fff"/>
      <path id="Caminho_251" data-name="Caminho 251" d="M31.225,45.193a2.032,2.032,0,0,0,2.032-2.032V39.1a6.1,6.1,0,0,0-6.1-6.1H19.032A2.032,2.032,0,0,0,17,35.032V39.1a6.1,6.1,0,0,0,6.1,6.1Zm-10.16-6.1V37.064h6.1A2.032,2.032,0,0,1,29.193,39.1v2.032H23.1A2.032,2.032,0,0,1,21.064,39.1Z" transform="translate(13.528 29.995)" fill="#fff"/>
      <path id="Caminho_252" data-name="Caminho 252" d="M37.16,41.064a2.032,2.032,0,0,0,0-4.064H29.032a2.032,2.032,0,0,0,0,4.064Z" transform="translate(23.849 34.124)" fill="#fff"/>
      <path id="Caminho_253" data-name="Caminho 253" d="M57.161,12.1H52.828L54.787,9.16A2.032,2.032,0,1,0,51.406,6.9L47.342,13a2.032,2.032,0,0,0,1.691,3.16h4.332L51.406,19.1a2.032,2.032,0,1,0,3.381,2.256l4.064-6.1a2.032,2.032,0,0,0-1.691-3.16Z" transform="translate(44.491 2.128)" fill="#fff"/>
      <path id="Caminho_254" data-name="Caminho 254" d="M119.886,20.289h-6.1V16.225h6.1a6.1,6.1,0,1,0,0-12.193h-6.1A2.032,2.032,0,0,0,111.757,2H97.533A16.275,16.275,0,0,0,82.5,12.073L62.743,10.425a51.886,51.886,0,0,0-9.272-.041A56.9,56.9,0,0,0,55.3,123.812q1.78.112,3.544.112a56.858,56.858,0,0,0,39.39-15.832,2.032,2.032,0,1,0-2.806-2.94A52.814,52.814,0,1,1,53.867,14.432a47.266,47.266,0,0,1,8.549.045l19.027,1.579a16.378,16.378,0,0,0-.167,2.2,16.4,16.4,0,0,0,.118,1.88l-19.3-1.609a43.431,43.431,0,0,0-7.828-.049,48.407,48.407,0,0,0-27.872,12.13,2.032,2.032,0,1,0,2.709,3.03A44.361,44.361,0,0,1,54.637,22.524a39.219,39.219,0,0,1,7.112.053L82.462,24.3a16.275,16.275,0,0,0,15.07,10.211h14.225a2.032,2.032,0,0,0,2.032-2.032h6.1a6.1,6.1,0,1,0,0-12.193Zm0-12.193a2.032,2.032,0,0,1,0,4.064h-6.1V8.1ZM97.533,30.449A12.193,12.193,0,0,1,85.868,14.715a1.7,1.7,0,0,0,.061-.171v-.016a12.209,12.209,0,0,1,11.6-8.464h12.193V30.449Zm22.353-2.032h-6.1V24.353h6.1a2.032,2.032,0,0,1,0,4.064Z" transform="translate(-1.977 -2)" fill="#fff"/>
      <path id="Caminho_255" data-name="Caminho 255" d="M88.471,46.482H86.236a18.3,18.3,0,0,0-13.174-8.009V32.257a8.128,8.128,0,0,0-8.128-8.128H44.612a6.791,6.791,0,0,0-1.016.085,4.4,4.4,0,0,0-1.238.254,8.1,8.1,0,0,0-5.875,7.789v6.216a18.159,18.159,0,0,0-4.064.947v-9.2A10.173,10.173,0,0,1,42.58,20.064H66.965a10.173,10.173,0,0,1,10.16,10.161v4.064a2.032,2.032,0,0,0,4.064,0V30.225A14.241,14.241,0,0,0,66.965,16H42.58A14.241,14.241,0,0,0,28.355,30.225V41.446a18.289,18.289,0,0,0-8.128,15.2v4.064a2.032,2.032,0,0,0,4.064,0V56.642A14.243,14.243,0,0,1,38.276,42.417a69.3,69.3,0,0,0,32.993,0A14.241,14.241,0,0,1,85.254,56.642V66.8H64.933a2.032,2.032,0,0,0,0,4.064H69v4.064a8.128,8.128,0,1,0,16.257,0V70.867h2.032a2.032,2.032,0,0,0,2.032-2.032V58.725a8.128,8.128,0,0,1,6.633,11.29A44.733,44.733,0,1,1,19.617,24.86a2.032,2.032,0,1,0-3.195-2.512,48.846,48.846,0,0,0,35.237,78.9q1.524.093,3.034.1a48.931,48.931,0,0,0,45-29.746A12.178,12.178,0,0,0,89.2,54.655a18.059,18.059,0,0,0-.953-4.109h.219a16.273,16.273,0,0,1,14.962,22.644,52.532,52.532,0,0,1-6.909,11.695,2.033,2.033,0,1,0,3.211,2.493,56.72,56.72,0,0,0,7.433-12.6,20.337,20.337,0,0,0-18.7-28.3ZM40.548,38.747V32.257a3.993,3.993,0,0,1,2.02-3.455l7.984,6.846a2.032,2.032,0,1,0,2.642-3.085l-5.1-4.371H64.933A4.064,4.064,0,0,1,69,32.257V35.48l-4.66-4.66a2.032,2.032,0,1,0-2.874,2.874l5.487,5.486a65.23,65.23,0,0,1-26.4-.433ZM81.19,74.931a4.064,4.064,0,1,1-8.128,0V70.867H81.19Z" transform="translate(2.173 12.449)" fill="#fff"/>
      <path id="Caminho_256" data-name="Caminho 256" d="M15.032,41a2.032,2.032,0,0,0,0,4.064h2.032v4.064a8.128,8.128,0,0,0,16.257,0V45.064H49.578a2.032,2.032,0,0,0,0-4.064Zm14.225,4.064v4.064a4.064,4.064,0,1,1-8.128,0V45.064Z" transform="translate(9.4 38.252)" fill="#fff"/>
    </g>
  </g>
</svg>
