<?xml version="1.0" encoding="utf-8"?>
<!-- Generator: Adobe Illustrator 24.1.0, SVG Export Plug-In . SVG Version: 6.00 Build 0)  -->
<svg version="1.1" id="Camada_1" xmlns="http://www.w3.org/2000/svg" xmlns:xlink="http://www.w3.org/1999/xlink" x="0px" y="0px"
	 viewBox="0 0 62.4 62.4" style="enable-background:new 0 0 62.4 62.4;" xml:space="preserve">
<style type="text/css">
	.st0{opacity:0.94;}
	.st1{fill:#FFFFFF;}
	.st2{fill:#C6C6F1;}
	.st3{fill:#BECDEA;}
</style>
<g id="XMLID_30_" transform="translate(-364.81 3254.768)" class="st0">
	<path id="XMLID_37_" class="st1" d="M762.5-3154.3l-0.3,28.3h2.2l-1-28.3H762.5z"/>
	<path id="XMLID_36_" class="st2" d="M763-3155.7L763-3155.7c0.4,0,0.7,0.3,0.7,0.7v0.8c0,0.1-0.1,0.2-0.2,0.2h-0.9
		c-0.1,0-0.2-0.1-0.2-0.2v-0.8C762.3-3155.4,762.6-3155.7,763-3155.7z"/>
	<path id="XMLID_35_" class="st3" d="M762.5-3154l1.7,20.7l-0.7-20.7H762.5z"/>
	<path id="XMLID_34_" class="st1" d="M762.5-3155.2l-7.6,7.6c0,0-0.1,0.1,0,0.1l0,0c0,0.1,0.1,0.2,0.2,0.1c0,0,0,0,0.1,0l0.1,0
		c0,0,0,0,0,0l2.1-2l4.1-3.7c0.2-0.2,0.3-0.4,0.4-0.6l0,0c0.1-0.2,0.1-0.4,0.3-0.5l0.4-0.5L762.5-3155.2z"/>
	<path id="XMLID_33_" class="st1" d="M763.3-3154.9l10.3,3c0.1,0,0.1,0,0.2,0l0,0c0.1-0.1,0.1-0.2,0-0.2c0,0,0,0,0,0l-0.1-0.1
		c0,0,0,0,0,0l-2.7-0.9l-5.2-1.9c-0.2-0.1-0.5-0.1-0.8,0l0,0c-0.2,0-0.4,0.1-0.6,0l-0.7-0.1L763.3-3154.9z"/>
	<path id="XMLID_32_" class="st1" d="M763.3-3155.7l-2.7-10.4c0-0.1-0.1-0.1-0.1-0.1l0,0c-0.1,0-0.2,0-0.2,0.1c0,0,0,0,0,0.1v0.1
		c0,0,0,0,0,0l0.6,2.8l1.1,5.4c0.1,0.3,0.2,0.5,0.4,0.7l0,0c0.1,0.1,0.3,0.3,0.3,0.5l0.2,0.6L763.3-3155.7z"/>
	<path id="XMLID_31_" class="st1" d="M763.7-3155.1c0,0.4-0.3,0.7-0.7,0.7c-0.4,0-0.7-0.3-0.7-0.7s0.3-0.7,0.7-0.7
		C763.4-3155.8,763.7-3155.5,763.7-3155.1C763.7-3155.1,763.7-3155.1,763.7-3155.1z"/>
</g>
<g id="XMLID_38_" transform="translate(-383.045 3271.22)" class="st0">
	<path id="XMLID_45_" class="st1" d="M759.3-3159.3l-0.1,16.4h1.3l-0.6-16.4H759.3z"/>
	<path id="XMLID_44_" class="st2" d="M759.6-3160.1L759.6-3160.1c0.2,0,0.4,0.2,0.4,0.4l0,0v0.5c0,0.1-0.1,0.1-0.1,0.1h-0.5
		c-0.1,0-0.1-0.1-0.1-0.1v-0.5C759.2-3159.9,759.4-3160.1,759.6-3160.1z"/>
	<path id="XMLID_43_" class="st3" d="M759.3-3159.1l1,12l-0.4-12H759.3z"/>
	<path id="XMLID_42_" class="st1" d="M759.3-3159.8l-4.4,4.4c0,0,0,0.1,0,0.1l0,0c0,0.1,0.1,0.1,0.1,0.1c0,0,0,0,0,0l0.1,0l0,0
		l1.2-1.1l2.4-2.1c0.1-0.1,0.2-0.2,0.2-0.4l0,0c0-0.1,0.1-0.2,0.2-0.3l0.3-0.3L759.3-3159.8z"/>
	<path id="XMLID_41_" class="st1" d="M759.8-3159.6l6,1.7c0,0,0.1,0,0.1,0l0,0c0,0,0.1-0.1,0-0.1c0,0,0,0,0,0l-0.1,0l0,0l-1.6-0.5
		l-3-1.1c-0.1,0-0.3-0.1-0.4,0l0,0c-0.1,0-0.2,0-0.3,0l-0.4-0.1L759.8-3159.6z"/>
	<path id="XMLID_40_" class="st1" d="M759.8-3160.1l-1.6-6c0,0,0-0.1-0.1-0.1l0,0c-0.1,0-0.1,0-0.1,0.1c0,0,0,0,0,0v0.1v0l0.3,1.6
		l0.6,3.2c0,0.1,0.1,0.3,0.2,0.4l0,0c0.1,0.1,0.1,0.2,0.2,0.3l0.1,0.4L759.8-3160.1z"/>
	<path id="XMLID_39_" class="st1" d="M760-3159.8c0,0.2-0.2,0.4-0.4,0.4c-0.2,0-0.4-0.2-0.4-0.4c0-0.2,0.2-0.4,0.4-0.4
		C759.8-3160.2,760-3160,760-3159.8C760-3159.8,760-3159.8,760-3159.8z"/>
</g>
<g id="XMLID_54_" transform="translate(-210.744 3264.399)" class="st0">
	<path id="XMLID_62_" class="st1" d="M760.7-3157.2l-0.2,21.4h1.6l-0.8-21.4H760.7z"/>
	<path id="XMLID_61_" class="st2" d="M761-3158.3L761-3158.3c0.3,0,0.5,0.2,0.5,0.5l0,0v0.6c0,0.1-0.1,0.2-0.2,0.2h-0.7
		c-0.1,0-0.2-0.1-0.2-0.2v-0.6C760.5-3158.1,760.7-3158.3,761-3158.3z"/>
	<path id="XMLID_60_" class="st3" d="M760.7-3157l1.3,15.6l-0.6-15.6H760.7z"/>
	<path id="XMLID_59_" class="st1" d="M760.7-3157.9l-5.7,5.8c0,0,0,0.1,0,0.1l0,0c0,0.1,0.1,0.1,0.1,0.1c0,0,0,0,0,0l0.1,0
		c0,0,0,0,0,0l1.6-1.5l3.1-2.8c0.1-0.1,0.2-0.3,0.3-0.5l0,0c0-0.1,0.1-0.3,0.2-0.4l0.3-0.4L760.7-3157.9z"/>
	<path id="XMLID_58_" class="st1" d="M761.3-3157.6l7.8,2.3c0,0,0.1,0,0.1,0l0,0c0.1,0,0.1-0.1,0-0.2c0,0,0,0,0,0l-0.1,0
		c0,0,0,0,0,0l-2.1-0.7l-4-1.4c-0.2-0.1-0.4-0.1-0.6,0l0,0c-0.1,0-0.3,0-0.5,0l-0.5-0.1L761.3-3157.6z"/>
	<path id="XMLID_57_" class="st1" d="M761.2-3158.2l-2.1-7.8c0,0,0-0.1-0.1-0.1l0,0c-0.1,0-0.1,0-0.2,0.1c0,0,0,0,0,0v0.1
		c0,0,0,0,0,0l0.5,2.1l0.8,4.1c0,0.2,0.1,0.4,0.3,0.5l0,0c0.1,0.1,0.2,0.2,0.2,0.4l0.2,0.5L761.2-3158.2z"/>
	<path id="XMLID_55_" class="st1" d="M761.6-3157.8c0,0.3-0.2,0.6-0.6,0.6s-0.6-0.2-0.6-0.6c0-0.3,0.2-0.6,0.6-0.6l0,0
		C761.3-3158.4,761.6-3158.1,761.6-3157.8z"/>
</g>
<g id="XMLID_80_" transform="translate(45.671 3264.399)" class="st0">
	<path id="XMLID_88_" class="st1" d="M760.7-3157.2l-0.2,21.4h1.6l-0.8-21.4H760.7z"/>
	<path id="XMLID_87_" class="st2" d="M761-3158.3L761-3158.3c0.3,0,0.5,0.2,0.5,0.5l0,0v0.6c0,0.1-0.1,0.2-0.2,0.2h-0.7
		c-0.1,0-0.2-0.1-0.2-0.2v-0.6C760.5-3158.1,760.7-3158.3,761-3158.3z"/>
	<path id="XMLID_86_" class="st3" d="M760.7-3157l1.3,15.6l-0.6-15.6H760.7z"/>
	<path id="XMLID_85_" class="st1" d="M760.7-3157.9l-5.7,5.8c0,0,0,0.1,0,0.1l0,0c0,0.1,0.1,0.1,0.1,0.1c0,0,0,0,0,0l0.1,0
		c0,0,0,0,0,0l1.6-1.5l3.1-2.8c0.1-0.1,0.2-0.3,0.3-0.5l0,0c0-0.1,0.1-0.3,0.2-0.4l0.3-0.4L760.7-3157.9z"/>
	<path id="XMLID_84_" class="st1" d="M761.3-3157.6l7.8,2.3c0,0,0.1,0,0.1,0l0,0c0.1,0,0.1-0.1,0-0.2c0,0,0,0,0,0l-0.1,0
		c0,0,0,0,0,0l-2.1-0.7l-4-1.4c-0.2-0.1-0.4-0.1-0.6,0l0,0c-0.1,0-0.3,0-0.5,0l-0.5-0.1L761.3-3157.6z"/>
	<path id="XMLID_83_" class="st1" d="M761.2-3158.2l-2.1-7.8c0,0,0-0.1-0.1-0.1l0,0c-0.1,0-0.1,0-0.2,0.1c0,0,0,0,0,0v0.1
		c0,0,0,0,0,0l0.5,2.1l0.8,4.1c0,0.2,0.1,0.4,0.3,0.5l0,0c0.1,0.1,0.2,0.2,0.2,0.4l0.2,0.5L761.2-3158.2z"/>
	<path id="XMLID_82_" class="st1" d="M761.6-3157.8c0,0.3-0.2,0.6-0.6,0.6s-0.6-0.2-0.6-0.6s0.2-0.6,0.6-0.6c0,0,0,0,0,0
		C761.3-3158.4,761.6-3158.1,761.6-3157.8z"/>
</g>
<g id="XMLID_46_" transform="translate(-228.935 3256.705)" class="st0">
	<path id="XMLID_53_" class="st1" d="M762.1-3154.9l-0.2,26.8h2.1l-1-26.8H762.1z"/>
	<path id="XMLID_52_" class="st2" d="M762.6-3156.3L762.6-3156.3c0.4,0,0.7,0.3,0.7,0.7v0.8c0,0.1-0.1,0.2-0.2,0.2h-0.9
		c-0.1,0-0.2-0.1-0.2-0.2v-0.8C761.9-3156,762.2-3156.3,762.6-3156.3C762.6-3156.3,762.6-3156.3,762.6-3156.3z"/>
	<path id="XMLID_51_" class="st3" d="M762.1-3154.6l1.6,19.6l-0.7-19.6H762.1z"/>
	<path id="XMLID_50_" class="st1" d="M762.2-3155.8l-7.2,7.2c0,0-0.1,0.1,0,0.1l0,0c0,0.1,0.1,0.2,0.2,0.1c0,0,0,0,0.1,0l0.1,0
		c0,0,0,0,0,0l2-1.9l3.9-3.5c0.2-0.2,0.3-0.4,0.4-0.6l0,0c0-0.2,0.1-0.4,0.3-0.5l0.4-0.5L762.2-3155.8z"/>
	<path id="XMLID_49_" class="st1" d="M762.9-3155.4l9.8,2.8c0,0,0.1,0,0.1,0l0,0c0.1-0.1,0.1-0.2,0-0.2c0,0,0,0,0,0l-0.1-0.1
		c0,0,0,0,0,0l-2.6-0.9l-5-1.8c-0.2-0.1-0.5-0.1-0.7,0l0,0c-0.2,0-0.4,0.1-0.6,0l-0.6-0.1L762.9-3155.4z"/>
	<path id="XMLID_48_" class="st1" d="M762.8-3156.2l-2.6-9.9c0-0.1-0.1-0.1-0.1-0.1l0,0c-0.1,0-0.2,0-0.2,0.1c0,0,0,0,0,0.1v0.1
		c0,0,0,0,0,0l0.6,2.7l1,5.2c0,0.2,0.2,0.5,0.3,0.6l0,0c0.1,0.1,0.2,0.3,0.3,0.5l0.2,0.6L762.8-3156.2z"/>
	<path id="XMLID_47_" class="st1" d="M763.3-3155.7c0,0.4-0.3,0.7-0.7,0.7c-0.4,0-0.7-0.3-0.7-0.7c0-0.4,0.3-0.7,0.7-0.7
		S763.3-3156.1,763.3-3155.7L763.3-3155.7z"/>
</g>
<g id="XMLID_71_" transform="translate(178.053 3234.127)" class="st0">
	<path id="XMLID_79_" class="st1" d="M766.4-3148.3l-0.4,42.7h3.3l-1.5-42.7H766.4z"/>
	<path id="XMLID_78_" class="st2" d="M767.1-3150.4L767.1-3150.4c0.6,0,1.1,0.5,1.1,1.1v1.2c0,0.2-0.2,0.3-0.3,0.3h-1.4
		c-0.2,0-0.3-0.2-0.3-0.3v-1.2C766-3149.9,766.5-3150.4,767.1-3150.4z"/>
	<path id="XMLID_77_" class="st3" d="M766.4-3147.8l2.5,31.2l-1.1-31.2H766.4z"/>
	<path id="XMLID_76_" class="st1" d="M766.4-3149.6l-11.4,11.5c-0.1,0.1-0.1,0.1-0.1,0.2l0,0c0,0.1,0.2,0.2,0.3,0.2c0,0,0.1,0,0.1,0
		l0.1-0.1c0,0,0,0,0.1,0l3.2-2.9l6.2-5.6c0.3-0.3,0.5-0.6,0.6-1l0,0c0.1-0.3,0.2-0.6,0.4-0.8l0.7-0.8L766.4-3149.6z"/>
	<path id="XMLID_75_" class="st1" d="M767.6-3149.1l15.6,4.5c0.1,0,0.2,0,0.2,0l0,0c0.1-0.1,0.1-0.3,0.1-0.4c0,0,0,0-0.1-0.1
		l-0.1-0.1c0,0,0,0-0.1,0l-4.1-1.4l-7.9-2.8c-0.4-0.1-0.8-0.1-1.1-0.1l0,0c-0.3,0.1-0.6,0.1-0.9,0l-1-0.2L767.6-3149.1z"/>
	<path id="XMLID_73_" class="st1" d="M767.5-3150.3l-4.1-15.7c0-0.1-0.1-0.1-0.2-0.2l0,0c-0.1-0.1-0.3,0-0.3,0.1c0,0,0,0.1,0,0.1
		v0.2c0,0,0,0,0,0.1l0.9,4.3l1.7,8.2c0.1,0.4,0.3,0.7,0.5,1l0,0c0.2,0.2,0.4,0.5,0.5,0.8l0.3,1L767.5-3150.3z"/>
	<path id="XMLID_72_" class="st1" d="M768.2-3149.4c0,0.6-0.5,1.1-1.1,1.1c-0.6,0-1.1-0.5-1.1-1.1c0-0.6,0.5-1.1,1.1-1.1l0,0
		C767.7-3150.5,768.2-3150,768.2-3149.4z"/>
</g>
<g id="XMLID_63_" transform="translate(122.577 3153.672)">
	<path id="XMLID_70_" class="st1" d="M794.8-3132.3l-1,107.2h8.2l-3.8-107.2H794.8z"/>
	<path id="XMLID_69_" class="st2" d="M796.1-3137.7h0.7c1.3,0,2.3,1,2.3,2.3v3.5c0,0.4-0.3,0.7-0.7,0.7h-3.8c-0.4,0-0.7-0.3-0.7-0.7
		l0,0v-3.5C793.8-3136.7,794.8-3137.7,796.1-3137.7z"/>
	<path id="XMLID_68_" class="st3" d="M794.7-3131.1l6.4,78.3l-2.8-78.3H794.7z"/>
	<path id="XMLID_67_" class="st1" d="M795.5-3134l11.9,39c0.1,0.2,0.2,0.4,0.4,0.4l0,0c0.3,0.1,0.7-0.1,0.8-0.4c0-0.1,0-0.1,0-0.2
		v-0.4c0-0.1,0-0.1,0-0.2l-2.7-10.6l-5-20.4c-0.2-0.9-0.7-1.8-1.4-2.5l0,0c-0.6-0.5-1-1.2-1.3-1.9l-0.9-2.4L795.5-3134z"/>
	<path id="XMLID_66_" class="st1" d="M798.1-3135.9l28.5-29.1c0.1-0.1,0.2-0.4,0.2-0.6l0,0c-0.1-0.4-0.4-0.6-0.7-0.6
		c-0.1,0-0.2,0-0.2,0.1l-0.3,0.2c0,0-0.1,0.1-0.1,0.1l-8,7.5l-15.6,14.1c-0.7,0.7-1.2,1.5-1.5,2.4l0,0c-0.2,0.7-0.5,1.4-1,2
		l-1.7,1.9L798.1-3135.9z"/>
	<path id="XMLID_65_" class="st1" d="M795.4-3137.2l-39.6-9.5c-0.2,0-0.4,0-0.6,0.1l0,0c-0.3,0.2-0.3,0.6-0.1,0.9
		c0,0.1,0.1,0.1,0.2,0.1l0.3,0.2c0,0,0.1,0,0.1,0.1l10.5,3.1l20.1,6.1c0.9,0.3,1.9,0.3,2.8,0l0,0c0.7-0.2,1.5-0.3,2.3-0.1l2.5,0.4
		L795.4-3137.2z"/>
	<path id="XMLID_64_" class="st1" d="M799.3-3135.2c0,1.5-1.2,2.8-2.8,2.8s-2.8-1.2-2.8-2.8s1.2-2.8,2.8-2.8l0,0
		C798.1-3138,799.3-3136.8,799.3-3135.2z"/>
</g>
<path id="XMLID_6_" class="st1" d="M30.5,32.2l7.7,25.2c0,0.1,0.1,0.2,0.3,0.3l0,0c0.2,0.1,0.5,0,0.5-0.3c0,0,0-0.1,0-0.1v-0.3
	c0,0,0-0.1,0-0.1l-1.7-6.9l-3.2-13.2c-0.1-0.6-0.5-1.2-0.9-1.6l0,0c-0.4-0.3-0.6-0.8-0.8-1.2l-0.6-1.5L30.5,32.2z"/>
<path id="XMLID_5_" class="st1" d="M32.2,30.9l18.4-18.9c0.1-0.1,0.1-0.2,0.1-0.4l0,0c0-0.2-0.3-0.4-0.5-0.4c0,0-0.1,0-0.1,0
	l-0.2,0.1c0,0-0.1,0-0.1,0.1l-5.2,4.8l-10.1,9.2c-0.5,0.4-0.8,1-0.9,1.6l0,0c-0.1,0.5-0.4,0.9-0.7,1.3l-1.1,1.2L32.2,30.9z"/>
<path id="XMLID_4_" class="st1" d="M30.4,30.1L4.7,24c-0.1,0-0.3,0-0.4,0.1l0,0c-0.2,0.1-0.2,0.4-0.1,0.6c0,0,0.1,0.1,0.1,0.1
	l0.2,0.1c0,0,0.1,0,0.1,0l6.8,2l13,3.9c0.6,0.2,1.2,0.2,1.8,0l0,0c0.5-0.1,1-0.2,1.5-0.1l1.6,0.3L30.4,30.1z"/>
<path id="XMLID_3_" class="st1" d="M33,31.2c0,1-0.8,1.8-1.8,1.8c0,0,0,0,0,0c-1,0-1.8-0.8-1.8-1.8c0,0,0,0,0,0c0-1,0.8-1.8,1.8-1.8
	c0,0,0,0,0,0C32.2,29.4,33,30.2,33,31.2z"/>
</svg>
