<?xml version="1.0" encoding="utf-8"?>
<!-- Generator: Adobe Illustrator 24.1.0, SVG Export Plug-In . SVG Version: 6.00 Build 0)  -->
<svg version="1.1" id="Camada_1" xmlns="http://www.w3.org/2000/svg" xmlns:xlink="http://www.w3.org/1999/xlink" x="0px" y="0px"
	 viewBox="0 0 114.8 122.9" style="enable-background:new 0 0 114.8 122.9;" xml:space="preserve">
<style type="text/css">
	.st0{fill:#FFFFFF;}
</style>
<g id="icosustenta" transform="translate(-0.5)">
	<path id="Caminho_266" class="st0" d="M43.5,79.9h-41c-1.1,0-2,0.9-2.1,2v30.7c0,1.1,0.9,2,2,2c0,0,0,0,0,0h8.2v4.1H6.6v4.1h32.8
		v-4.1h-4.1v-4.1h8.2c1.1,0,2-0.9,2-2c0,0,0,0,0,0V82C45.6,80.8,44.7,79.9,43.5,79.9z M41.5,90.2h-6.1V84h6.1L41.5,90.2z
		 M25.1,110.7v-6.1h6.1v6.1H25.1z M14.8,94.3H21v6.1h-6.1V94.3z M10.7,100.4H4.6v-6.1h6.1L10.7,100.4z M21,90.2h-6.1V84H21L21,90.2z
		 M25.1,84h6.1v6.1h-6.1V84z M21,104.5v6.1h-6.1v-6.1H21z M25.1,100.4v-6.1h6.1v6.1H25.1z M35.3,94.3h6.1v6.1h-6.1V94.3z M10.7,84
		v6.1H4.6V84H10.7z M4.6,104.5h6.1v6.1H4.6V104.5z M31.2,118.8H14.8v-4.1h16.4L31.2,118.8z M35.3,110.6v-6.1h6.1v6.1H35.3z"/>
	<path id="Caminho_267" class="st0" d="M93.7,53.7l-8.9-5.1c-0.5-0.3-1-0.3-1.6-0.2l-4.8,1.3c0.1-0.4,0.1-0.8,0.1-1.2
		c0-4.1-2.4-7.8-6.2-9.4l3.5-3.5c0.4-0.4,0.6-0.9,0.6-1.4v-30c0-2.3-1.8-4.1-4.1-4.1c-1.1,0-2.1,0.4-2.9,1.2c-6,6-9.4,14.2-9.4,22.7
		v10.2c0,0.5,0.2,1.1,0.6,1.4l3.5,3.5c-3.7,1.6-6.2,5.3-6.2,9.4c0,0.4,0.1,0.8,0.1,1.2l-4.8-1.3c-0.5-0.1-1.1-0.1-1.6,0.2l-26,15
		c-2,1.1-2.6,3.6-1.5,5.6c0.5,0.9,1.4,1.6,2.5,1.9c2.7,0.7,5.5,1.1,8.4,1.1c5.6,0,11.1-1.5,16-4.3l8.9-5.1c0.5-0.3,0.8-0.7,1-1.2
		l1.3-4.8c0.6,0.4,1.2,0.8,1.8,1.1l-7.7,52.9h-4.4c-1.1,0-2,0.9-2,2v0v8.2c0,1.1,0.9,2,2,2.1c0,0,0,0,0,0h32.8c1.1,0,2-0.9,2.1-2
		c0,0,0,0,0,0v-8.2c0-1.1-0.9-2-2-2c0,0,0,0,0,0h-4.4l-7.7-52.9c0.6-0.3,1.2-0.7,1.8-1.1l1.3,4.8c0.1,0.5,0.5,1,1,1.2l26,15
		c2,1.1,4.5,0.5,5.6-1.5c0.5-0.9,0.7-2.1,0.4-3.1C106.5,64.9,101.1,57.9,93.7,53.7z M64.2,23.9c0-7.4,2.9-14.6,8.2-19.8v29.2
		l-4.1,4.1l-4.1-4.1L64.2,23.9z M57.2,59.6l-8.1,4.7c-6.4,3.7-14.1,4.7-21.2,2.8l25.3-14.6l5.6,1.5L57.2,59.6z M71.6,79.2H65
		l0.6-4.1H71L71.6,79.2z M82.6,118.8H54v-4.1h28.7L82.6,118.8z M60.4,110.6l4-27.3h7.8l4,27.3H60.4z M68.6,58.7L70.4,71h-4.2
		L68,58.7H68.6z M68.3,54.6c-3.4,0-6.1-2.8-6.1-6.1c0-3.4,2.8-6.1,6.1-6.1c3.4,0,6.1,2.8,6.1,6.1C74.5,51.9,71.7,54.6,68.3,54.6
		C68.3,54.6,68.3,54.6,68.3,54.6L68.3,54.6z M79.4,59.6L77.9,54l5.6-1.5l8.1,4.7c6.4,3.7,11.1,9.8,13,17L79.4,59.6z"/>
	<path id="Caminho_268" class="st0" d="M81.3,14l-1.4,3.8C87.3,20.6,93.5,26,97.2,33l3.6-1.9C96.6,23.2,89.7,17.1,81.3,14z"/>
	<path id="Caminho_269" class="st0" d="M104.2,39.8c-0.4-1.5-0.8-2.9-1.3-4.3L99,36.9c0.5,1.3,0.9,2.5,1.2,3.9L104.2,39.8z"/>
	<path id="Caminho_270" class="st0" d="M110.6,40.7c0.2,1.3,0.4,2.6,0.5,3.9l4.1-0.4c-0.1-1.4-0.3-2.9-0.6-4.3L110.6,40.7z"/>
	<path id="Caminho_271" class="st0" d="M81.2,3.1L80,7.1c14.3,4.1,25.6,15.3,29.7,29.7l3.9-1.1C109.2,19.9,96.9,7.6,81.2,3.1z"/>
	<path id="Caminho_272" class="st0" d="M37,29c-4.7,7.6-6.5,16.7-5.1,25.5l4-0.7c-1.3-7.9,0.3-15.9,4.5-22.7L37,29z"/>
	<path id="Caminho_273" class="st0" d="M45.7,24.7l-2.8-3c-1.1,1-2.1,2.2-3.1,3.3l3.2,2.6C43.8,26.6,44.7,25.7,45.7,24.7z"/>
	<path id="Caminho_274" class="st0" d="M43.5,13.3L41.1,10c-1.2,0.8-2.3,1.7-3.4,2.7l2.7,3.1C41.4,14.9,42.4,14.1,43.5,13.3z"/>
	<path id="Caminho_275" class="st0" d="M34.5,15.6C23.1,27.4,18.6,44.2,22.6,60l4-1C23,44.5,27.1,29.2,37.4,18.5L34.5,15.6z"/>
	<path id="Caminho_276" class="st0" d="M89.1,73.8c-2.2,1.8-4.7,3.3-7.3,4.5l1.7,3.7c2.9-1.3,5.7-3,8.2-5.1L89.1,73.8z"/>
	<path id="Caminho_277" class="st0" d="M82.3,93.5c7.1-2.2,13.5-6,18.8-11.2l-2.9-2.9c-4.8,4.7-10.7,8.2-17.2,10.2L82.3,93.5z"/>
</g>
</svg>
