<svg xmlns="http://www.w3.org/2000/svg" width="114.752" height="122.948" viewBox="0 0 114.752 122.948">
  <g id="icosustenta" transform="translate(-0.5)">
    <path id="Caminho_266" data-name="Caminho 266" d="M43.533,332.8H2.55a2.05,2.05,0,0,0-2.05,2.05v30.737a2.049,2.049,0,0,0,2.05,2.05h8.2v4.1h-4.1v4.1H39.434v-4.1h-4.1v-4.1h8.2a2.049,2.049,0,0,0,2.049-2.05V334.846A2.05,2.05,0,0,0,43.533,332.8Zm-2.05,10.246H35.336V336.9h6.147ZM25.09,363.535v-6.148h6.147v6.148ZM14.844,347.141h6.148v6.148H14.844Zm-4.1,6.148H4.6v-6.148h6.148Zm10.246-10.246H14.844V336.9h6.148Zm4.1-6.147h6.147v6.147H25.09Zm-4.1,20.491v6.148H14.844v-6.148Zm4.1-4.1v-6.148h6.147v6.148Zm10.245-6.148h6.148v6.148H35.335ZM10.746,336.9v6.147H4.6V336.9ZM4.6,357.387h6.148v6.148H4.6Zm26.639,14.344H14.844v-4.1H31.237Zm4.1-8.2v-6.148h6.148v6.148Zm0,0" transform="translate(0 -252.882)" fill="#fff"/>
    <path id="Caminho_267" data-name="Caminho 267" d="M167.192,53.674l-8.873-5.123a2.067,2.067,0,0,0-1.555-.205l-4.838,1.3a9.893,9.893,0,0,0,.119-1.166,10.248,10.248,0,0,0-6.162-9.383l3.519-3.51a2.05,2.05,0,0,0,.6-1.448V4.1a4.1,4.1,0,0,0-7-2.9,31.869,31.869,0,0,0-9.4,22.691V34.135a2.048,2.048,0,0,0,.6,1.449l3.519,3.512a10.244,10.244,0,0,0-6.16,9.383,10.53,10.53,0,0,0,.116,1.166l-4.846-1.287a2.066,2.066,0,0,0-1.555.205L99.266,63.569a4.1,4.1,0,0,0,.991,7.509,32.223,32.223,0,0,0,8.356,1.108A31.89,31.89,0,0,0,124.6,67.873l8.873-5.123a2.053,2.053,0,0,0,.955-1.245l1.293-4.823a10.278,10.278,0,0,0,1.8,1.078l-7.733,52.893H125.4a2.049,2.049,0,0,0-2.049,2.049v8.2a2.049,2.049,0,0,0,2.049,2.05h32.787a2.049,2.049,0,0,0,2.05-2.05v-8.2a2.049,2.049,0,0,0-2.05-2.049h-4.377L146.077,57.76a10.139,10.139,0,0,0,1.8-1.078l1.294,4.823a2.045,2.045,0,0,0,.955,1.244L176.13,77.765a4.1,4.1,0,0,0,6.01-4.611A31.881,31.881,0,0,0,167.192,53.674ZM137.7,23.89A27.8,27.8,0,0,1,145.9,4.1v29.19l-4.1,4.1-4.1-4.1Zm-7.013,35.738-8.131,4.695a27.816,27.816,0,0,1-21.236,2.8L126.6,52.527l5.6,1.5Zm14.387,19.592h-6.558l.6-4.1h5.365Zm11.068,39.628H127.454v-4.1h28.688Zm-22.219-8.2,4-27.338h7.752l4,27.338Zm8.153-51.928,1.8,12.295h-4.154l1.8-12.295Zm-.279-4.1a6.147,6.147,0,1,1,6.147-6.148A6.147,6.147,0,0,1,141.8,54.627Zm11.108,5-1.5-5.6,5.6-1.5,8.137,4.7a27.8,27.8,0,0,1,13.039,16.992Zm0,0" transform="translate(-73.492)" fill="#fff"/>
    <path id="Caminho_268" data-name="Caminho 268" d="M332.505,58.125l-1.446,3.836a32.824,32.824,0,0,1,17.365,15.258l3.614-1.93A36.927,36.927,0,0,0,332.505,58.125Zm0,0" transform="translate(-251.181 -44.167)" fill="#fff"/>
    <path id="Caminho_269" data-name="Caminho 269" d="M415.827,152.026a35.982,35.982,0,0,0-1.336-4.342l-3.835,1.445a32.538,32.538,0,0,1,1.187,3.854Zm0,0" transform="translate(-311.664 -112.22)" fill="#fff"/>
    <path id="Caminho_270" data-name="Caminho 270" d="M459.117,166.958c.234,1.283.41,2.6.533,3.912l4.091-.369c-.129-1.435-.326-2.869-.586-4.283Zm0,0" transform="translate(-348.488 -126.304)" fill="#fff"/>
    <path id="Caminho_271" data-name="Caminho 271" d="M332.864,13.008,331.75,16.95a43.283,43.283,0,0,1,29.676,29.678l3.944-1.116A47.408,47.408,0,0,0,332.864,13.008Zm0,0" transform="translate(-251.706 -9.884)" fill="#fff"/>
    <path id="Caminho_272" data-name="Caminho 272" d="M134.823,120.633a36.933,36.933,0,0,0-5.1,25.5l4.043-.663A32.848,32.848,0,0,1,138.3,122.8Zm0,0" transform="translate(-97.825 -91.665)" fill="#fff"/>
    <path id="Caminho_273" data-name="Caminho 273" d="M169.957,93.606l-2.824-2.97a36.891,36.891,0,0,0-3.09,3.328l3.168,2.6A32.621,32.621,0,0,1,169.957,93.606Zm0,0" transform="translate(-124.271 -68.872)" fill="#fff"/>
    <path id="Caminho_274" data-name="Caminho 274" d="M161.228,44.868l-2.359-3.349c-1.18.83-2.332,1.723-3.42,2.652l2.664,3.119C159.1,46.444,160.152,45.628,161.228,44.868Zm0,0" transform="translate(-117.741 -31.549)" fill="#fff"/>
    <path id="Caminho_275" data-name="Caminho 275" d="M99.971,65.07a47.4,47.4,0,0,0-11.9,44.4l3.973-1a43.283,43.283,0,0,1,10.86-40.538Zm0,0" transform="translate(-65.474 -49.445)" fill="#fff"/>
    <path id="Caminho_276" data-name="Caminho 276" d="M346.378,307.516a32.794,32.794,0,0,1-7.288,4.508l1.687,3.733a36.806,36.806,0,0,0,8.2-5.08Zm0,0" transform="translate(-257.283 -233.671)" fill="#fff"/>
    <path id="Caminho_277" data-name="Caminho 277" d="M337.493,344.563A47.336,47.336,0,0,0,356.3,333.381l-2.859-2.936a43.155,43.155,0,0,1-17.171,10.2Zm0,0" transform="translate(-255.143 -251.095)" fill="#fff"/>
  </g>
</svg>
