<?xml version="1.0" encoding="utf-8"?>
<!-- Generator: Adobe Illustrator 24.1.0, SVG Export Plug-In . SVG Version: 6.00 Build 0)  -->
<svg version="1.1" id="Camada_1" xmlns="http://www.w3.org/2000/svg" xmlns:xlink="http://www.w3.org/1999/xlink" x="0px" y="0px"
	 viewBox="0 0 400 400" style="enable-background:new 0 0 400 400;" xml:space="preserve">
<path d="M200,3L200,3C91.2,3,3,91.2,3,200s88.2,197,197,197h0c108.8,0,197-88.2,197-197S308.8,3,200,3z M283.5,157.2
	c2.7,60.6-42.5,128.1-122.4,128.1c-24.3,0-47-7.1-66-19.4c22.8,2.7,45.7-3.6,63.8-17.8c-18.8-0.4-34.8-12.8-40.2-29.9
	c6.7,1.3,13.4,0.9,19.4-0.7c-20.7-4.2-35-22.8-34.5-42.8c5.8,3.2,12.5,5.2,19.5,5.4c-19.2-12.8-24.6-38.1-13.3-57.5
	c21.2,26.1,53,43.2,88.8,45c-6.3-26.9,14.2-52.9,42-52.9c12.4,0,23.6,5.2,31.4,13.6c9.8-1.9,19-5.5,27.3-10.5
	c-3.2,10.1-10,18.5-18.9,23.8c8.7-1,17-3.4,24.7-6.8C299.2,143.5,291.9,151.1,283.5,157.2z"/>
</svg>
