<svg xmlns="http://www.w3.org/2000/svg" width="99" height="99" viewBox="0 0 99 99">
  <g id="icotourism" transform="translate(-1 -1)">
    <path id="Caminho_263" data-name="Caminho 263" d="M42.516,34.71V32.952a4.784,4.784,0,0,0-3.194-4.5V18.581h3.194a3.2,3.2,0,0,0,3.194-3.194V12.194A3.2,3.2,0,0,0,42.516,9H7.387a3.2,3.2,0,0,0-3.194,3.194v3.194a3.2,3.2,0,0,0,3.194,3.194h3.194v9.874a4.784,4.784,0,0,0-3.194,4.5V34.71A8,8,0,0,0,1,42.532V80.855a7.972,7.972,0,0,0,5.293,7.484,4.746,4.746,0,0,0-.5,2.1,4.79,4.79,0,1,0,9.581,0,4.736,4.736,0,0,0-.294-1.6H34.828a4.7,4.7,0,0,0-.3,1.6,4.79,4.79,0,1,0,9.581,0,4.746,4.746,0,0,0-.5-2.1A7.972,7.972,0,0,0,48.9,80.855V42.532a8,8,0,0,0-6.387-7.823Zm-6.387-6.548H32.935V18.581h3.194Zm-6.387-9.581v9.581H20.161V18.581ZM7.387,12.194H42.516l0,3.194H7.387Zm9.581,6.387v9.581H13.774V18.581Zm-4.79,12.774H37.726a1.6,1.6,0,0,1,1.6,1.6v1.6H10.581v-1.6A1.6,1.6,0,0,1,12.177,31.355ZM8.984,37.742H40.919a4.8,4.8,0,0,1,4.79,4.79V79.258H42.516V61.694a4.79,4.79,0,0,0-9.581,0V79.258H29.742V61.694a4.79,4.79,0,0,0-9.581,0V79.258H16.968V61.694a4.79,4.79,0,0,0-9.581,0V79.258H4.194V42.532A4.8,4.8,0,0,1,8.984,37.742ZM39.323,79.258H36.129V61.694a1.6,1.6,0,0,1,3.194,0Zm-12.774,0H23.355V61.694a1.6,1.6,0,0,1,3.194,0Zm-12.774,0H10.581V61.694a1.6,1.6,0,0,1,3.194,0Zm-1.6,11.177a1.6,1.6,0,1,1-1.6-1.6A1.6,1.6,0,0,1,12.177,90.435Zm27.145,1.6a1.6,1.6,0,1,1,1.6-1.6A1.6,1.6,0,0,1,39.323,92.032Zm1.6-6.387H8.984a4.784,4.784,0,0,1-4.5-3.194H45.414A4.78,4.78,0,0,1,40.919,85.645Z" transform="translate(0 4.774)" fill="#fff"/>
    <path id="Caminho_264" data-name="Caminho 264" d="M9.79,41.774H35.339a4.8,4.8,0,0,0,4.79-4.79V33.79A4.8,4.8,0,0,0,35.339,29H9.79A4.8,4.8,0,0,0,5,33.79v3.194A4.8,4.8,0,0,0,9.79,41.774Zm-1.6-7.984a1.6,1.6,0,0,1,1.6-1.6H35.339a1.6,1.6,0,0,1,1.6,1.6v3.194a1.6,1.6,0,0,1-1.6,1.6H9.79a1.6,1.6,0,0,1-1.6-1.6Z" transform="translate(2.387 16.71)" fill="#fff"/>
    <path id="Caminho_265" data-name="Caminho 265" d="M79.306,38.778V21.758a7.993,7.993,0,0,0-7.984-7.984h-1.6a12.774,12.774,0,1,0-25.548,0h-1.6A7.993,7.993,0,0,0,34.6,21.758v17.02A23.8,23.8,0,0,0,33,47.306v9.581a7.993,7.993,0,0,0,7.984,7.984h1.6V92.016a7.959,7.959,0,0,0,14.371,4.741,7.959,7.959,0,0,0,14.371-4.741V64.871h1.6A7.993,7.993,0,0,0,80.9,56.887V47.306A23.8,23.8,0,0,0,79.306,38.778Zm-7.984-21.81a4.8,4.8,0,0,1,4.79,4.79V33A24.01,24.01,0,0,0,64,24.417a12.807,12.807,0,0,0,5.3-7.449Zm-1.6,28.742a1.6,1.6,0,0,1-1.6,1.6H64.935a1.6,1.6,0,0,1-1.6-1.6V32.886a7.918,7.918,0,0,0,1.6-4.736,20.677,20.677,0,0,1,4.79,2.829Zm-25.548,0V30.978a20.79,20.79,0,0,1,4.79-2.829,7.907,7.907,0,0,0,1.6,4.736V45.71a1.6,1.6,0,0,1-1.6,1.6H45.774A1.6,1.6,0,0,1,44.177,45.71Zm7.984-17.565V27.128a20.084,20.084,0,0,1,9.581,0v1.017a4.79,4.79,0,1,1-9.581,0Zm4.79-23.952a9.581,9.581,0,1,1-9.581,9.581A9.59,9.59,0,0,1,56.952,4.194ZM37.79,21.758a4.8,4.8,0,0,1,4.79-4.79H44.6a12.8,12.8,0,0,0,5.3,7.449A24,24,0,0,0,37.79,33Zm3.194,39.919a4.8,4.8,0,0,1-4.79-4.79V47.306a20.66,20.66,0,0,1,4.79-13.245V45.71a4.766,4.766,0,0,0,1.6,3.545V61.677ZM68.129,92.016a4.79,4.79,0,0,1-9.581,0V56.887H55.355V92.016a4.79,4.79,0,0,1-9.581,0V50.5h3.194a4.8,4.8,0,0,0,4.79-4.79V35.452a7.87,7.87,0,0,0,6.387,0V45.71a4.8,4.8,0,0,0,4.79,4.79h3.194ZM77.71,56.887a4.8,4.8,0,0,1-4.79,4.79h-1.6V49.255a4.763,4.763,0,0,0,1.6-3.545V34.061a20.66,20.66,0,0,1,4.79,13.245Z" transform="translate(19.097)" fill="#fff"/>
  </g>
</svg>
