<svg id="icowave" xmlns="http://www.w3.org/2000/svg" width="124.01" height="64" viewBox="0 0 124.01 64">
  <rect id="Retângulo_19" data-name="Retângulo 19" width="124" height="64" transform="translate(0)" fill="rgba(255,255,255,0)"/>
  <g id="ico_wave" transform="translate(0)">
    <g id="Grupo_25" data-name="Grupo 25" transform="translate(83.68 16.95)">
      <path id="Caminho_78" data-name="Caminho 78" d="M-80.75-11.06c4.91,0,7.17,1.74,10.03,3.95,3.14,2.42,6.7,5.17,13.6,5.17s10.46-2.75,13.6-5.17c2.86-2.21,5.12-3.95,10.03-3.95s7.17,1.74,10.03,3.95c3.14,2.42,6.7,5.17,13.6,5.17S.6-4.69,3.74-7.11c2.86-2.21,5.12-3.95,10.03-3.95S20.94-9.32,23.8-7.11c3.14,2.42,6.7,5.17,13.6,5.17a2.936,2.936,0,0,0,2.93-2.94A2.936,2.936,0,0,0,37.4-7.82c-4.91,0-7.17-1.74-10.03-3.95-3.14-2.42-6.7-5.17-13.6-5.17S3.31-14.19.17-11.77C-2.69-9.57-4.95-7.83-9.86-7.83s-7.17-1.74-10.03-3.95c-3.14-2.42-6.7-5.17-13.6-5.17s-10.46,2.75-13.6,5.17c-2.86,2.21-5.12,3.95-10.03,3.95s-7.17-1.74-10.03-3.95c-3.14-2.42-6.7-5.17-13.6-5.17a2.936,2.936,0,0,0-2.93,2.94A2.951,2.951,0,0,0-80.75-11.06Z" fill="#fff"/>
    </g>
    <g id="Grupo_26" data-name="Grupo 26" transform="translate(83.68 16.95)">
      <path id="Caminho_79" data-name="Caminho 79" d="M37.4,8.44c-4.91,0-7.17-1.74-10.03-3.95-3.14-2.42-6.7-5.17-13.6-5.17S3.31,2.07.17,4.49C-2.69,6.69-4.95,8.44-9.86,8.44S-17.03,6.7-19.89,4.49c-3.14-2.42-6.7-5.17-13.6-5.17s-10.46,2.75-13.6,5.17c-2.86,2.21-5.12,3.95-10.03,3.95S-64.29,6.7-67.15,4.49c-3.14-2.42-6.7-5.17-13.6-5.17a2.936,2.936,0,0,0-2.93,2.94A2.936,2.936,0,0,0-80.75,5.2c4.91,0,7.17,1.74,10.03,3.95,3.14,2.42,6.7,5.17,13.6,5.17s10.46-2.75,13.6-5.17C-40.66,6.94-38.4,5.2-33.49,5.2s7.17,1.74,10.03,3.95c3.14,2.42,6.7,5.17,13.6,5.17S.6,11.57,3.74,9.15C6.6,6.95,8.86,5.2,13.77,5.2S20.94,6.94,23.8,9.15c3.14,2.42,6.7,5.17,13.6,5.17a2.94,2.94,0,0,0,0-5.88Z" fill="#fff"/>
    </g>
    <g id="Grupo_27" data-name="Grupo 27" transform="translate(83.68 16.95)">
      <path id="Caminho_80" data-name="Caminho 80" d="M37.4,24.7c-4.91,0-7.17-1.74-10.03-3.95-3.14-2.42-6.7-5.17-13.6-5.17S3.31,18.33.17,20.75C-2.69,22.96-4.95,24.7-9.86,24.7s-7.17-1.74-10.03-3.95c-3.14-2.42-6.7-5.17-13.6-5.17s-10.46,2.75-13.6,5.17c-2.86,2.21-5.12,3.95-10.03,3.95s-7.17-1.74-10.03-3.95c-3.14-2.42-6.7-5.17-13.6-5.17a2.936,2.936,0,0,0-2.93,2.94,2.936,2.936,0,0,0,2.93,2.94c4.91,0,7.17,1.74,10.03,3.95,3.14,2.42,6.7,5.17,13.6,5.17s10.46-2.75,13.6-5.17c2.86-2.21,5.12-3.95,10.03-3.95s7.17,1.74,10.03,3.95c3.14,2.42,6.7,5.17,13.6,5.17S.6,27.83,3.74,25.41c2.86-2.21,5.12-3.95,10.03-3.95s7.17,1.74,10.03,3.95c3.14,2.42,6.7,5.17,13.6,5.17a2.94,2.94,0,0,0,0-5.88Z" fill="#fff"/>
    </g>
    <g id="Grupo_28" data-name="Grupo 28" transform="translate(83.68 16.95)">
      <path id="Caminho_81" data-name="Caminho 81" d="M37.4,40.97c-4.91,0-7.17-1.74-10.03-3.95-3.14-2.42-6.7-5.17-13.6-5.17S3.31,34.6.17,37.02c-2.86,2.21-5.12,3.95-10.03,3.95s-7.17-1.74-10.03-3.95c-3.14-2.42-6.7-5.17-13.6-5.17s-10.46,2.75-13.6,5.17c-2.86,2.21-5.12,3.95-10.03,3.95s-7.17-1.74-10.03-3.95c-3.14-2.42-6.7-5.17-13.6-5.17a2.936,2.936,0,0,0-2.93,2.94,2.93,2.93,0,0,0,2.93,2.94c4.91,0,7.17,1.74,10.03,3.95,3.14,2.42,6.7,5.17,13.6,5.17s10.46-2.75,13.6-5.17c2.86-2.21,5.12-3.95,10.03-3.95s7.17,1.74,10.03,3.95c3.14,2.42,6.7,5.17,13.6,5.17S.6,44.1,3.74,41.68c2.86-2.21,5.12-3.95,10.03-3.95s7.17,1.74,10.03,3.95c3.14,2.42,6.7,5.17,13.6,5.17a2.94,2.94,0,0,0,0-5.88Z" fill="#fff"/>
    </g>
  </g>
</svg>
