<?xml version="1.0" encoding="utf-8"?>
<!-- Generator: Adobe Illustrator 24.1.0, SVG Export Plug-In . SVG Version: 6.00 Build 0)  -->
<svg version="1.1" id="Camada_1" xmlns="http://www.w3.org/2000/svg" xmlns:xlink="http://www.w3.org/1999/xlink" x="0px" y="0px"
	 viewBox="0 0 377 221" style="enable-background:new 0 0 377 221;" xml:space="preserve">
<style type="text/css">
	.st0{filter:url(#Adobe_OpacityMaskFilter);}
	.st1{fill:#FFFFFF;}
	.st2{mask:url(#SVGID_1_);}
</style>
<defs>
	<filter id="Adobe_OpacityMaskFilter" filterUnits="userSpaceOnUse" x="5" y="8.7" width="390" height="200.7">
		<feColorMatrix  type="matrix" values="1 0 0 0 0  0 1 0 0 0  0 0 1 0 0  0 0 0 1 0"/>
	</filter>
</defs>
<mask maskUnits="userSpaceOnUse" x="5" y="8.7" width="390" height="200.7" id="SVGID_1_">
	<g class="st0">
		<rect x="-32.7" y="-14.3" class="st1" width="402.6" height="264.2"/>
	</g>
</mask>
<g class="st2">
	<g>
		<path class="st1" d="M14.2,27.2c15.5,0,22.6,5.5,31.6,12.4c9.9,7.6,21.1,16.3,42.8,16.3c21.7,0,32.9-8.6,42.8-16.3
			c9-6.9,16.1-12.4,31.6-12.4c15.5,0,22.6,5.5,31.6,12.4c9.9,7.6,21.1,16.3,42.8,16.3c21.7,0,32.9-8.6,42.8-16.3
			c9-6.9,16.1-12.4,31.6-12.4c15.5,0,22.6,5.5,31.6,12.4c9.9,7.6,21.1,16.3,42.8,16.3c5.1,0,9.2-4.1,9.2-9.3s-4.1-9.3-9.2-9.3
			c-15.5,0-22.6-5.5-31.6-12.4c-9.9-7.6-21.1-16.3-42.8-16.3c-21.7,0-32.9,8.6-42.8,16.3c-9,6.9-16.1,12.4-31.6,12.4
			c-15.5,0-22.6-5.5-31.6-12.4c-9.9-7.6-21.1-16.3-42.8-16.3c-21.7,0-32.9,8.6-42.8,16.3c-9,6.9-16.1,12.4-31.6,12.4
			C73.1,37.4,66,31.9,57,24.9C47.1,17.3,35.9,8.7,14.2,8.7C9.1,8.7,5,12.8,5,17.9C5,23,9.1,27.2,14.2,27.2z"/>
	</g>
	<g>
		<path class="st1" d="M385.8,88.5c-15.5,0-22.6-5.5-31.6-12.4c-9.9-7.6-21.1-16.3-42.8-16.3c-21.7,0-32.9,8.6-42.8,16.3
			c-9,6.9-16.1,12.4-31.6,12.4c-15.5,0-22.6-5.5-31.6-12.4c-9.9-7.6-21.1-16.3-42.8-16.3c-21.7,0-32.9,8.6-42.8,16.3
			c-9,6.9-16.1,12.4-31.6,12.4C73.1,88.5,66,83,57,76.1c-9.9-7.6-21.1-16.3-42.8-16.3C9.1,59.8,5,64,5,69.1s4.1,9.3,9.2,9.3
			c15.5,0,22.6,5.5,31.6,12.4c9.9,7.6,21.1,16.3,42.8,16.3c21.7,0,32.9-8.6,42.8-16.3c9-6.9,16.1-12.4,31.6-12.4
			c15.5,0,22.6,5.5,31.6,12.4c9.9,7.6,21.1,16.3,42.8,16.3c21.7,0,32.9-8.6,42.8-16.3c9-6.9,16.1-12.4,31.6-12.4
			c15.5,0,22.6,5.5,31.6,12.4c9.9,7.6,21.1,16.3,42.8,16.3c5.1,0,9.2-4.1,9.2-9.3C395,92.7,390.9,88.5,385.8,88.5z"/>
	</g>
	<g>
		<path class="st1" d="M385.8,139.7c-15.5,0-22.6-5.5-31.6-12.4c-9.9-7.6-21.1-16.3-42.8-16.3c-21.7,0-32.9,8.6-42.8,16.3
			c-9,6.9-16.1,12.4-31.6,12.4c-15.5,0-22.6-5.5-31.6-12.4c-9.9-7.6-21.1-16.3-42.8-16.3c-21.7,0-32.9,8.6-42.8,16.3
			c-9,6.9-16.1,12.4-31.6,12.4c-15.5,0-22.6-5.5-31.6-12.4c-9.9-7.6-21.1-16.3-42.8-16.3c-5.1,0-9.2,4.1-9.2,9.3
			c0,5.1,4.1,9.3,9.2,9.3c15.5,0,22.6,5.5,31.6,12.4c9.9,7.6,21.1,16.3,42.8,16.3c21.7,0,32.9-8.6,42.8-16.3
			c9-6.9,16.1-12.4,31.6-12.4c15.5,0,22.6,5.5,31.6,12.4c9.9,7.6,21.1,16.3,42.8,16.3c21.7,0,32.9-8.6,42.8-16.3
			c9-6.9,16.1-12.4,31.6-12.4c15.5,0,22.6,5.5,31.6,12.4c9.9,7.6,21.1,16.3,42.8,16.3c5.1,0,9.2-4.1,9.2-9.3
			C395,143.8,390.9,139.7,385.8,139.7z"/>
	</g>
	<g>
		<path class="st1" d="M385.8,190.8c-15.5,0-22.6-5.5-31.6-12.4c-9.9-7.6-21.1-16.3-42.8-16.3c-21.7,0-32.9,8.6-42.8,16.3
			c-9,6.9-16.1,12.4-31.6,12.4c-15.5,0-22.6-5.5-31.6-12.4c-9.9-7.6-21.1-16.3-42.8-16.3c-21.7,0-32.9,8.6-42.8,16.3
			c-9,6.9-16.1,12.4-31.6,12.4c-15.5,0-22.6-5.5-31.6-12.4c-9.9-7.6-21.1-16.3-42.8-16.3c-5.1,0-9.2,4.1-9.2,9.3
			c0,5.1,4.1,9.3,9.2,9.3c15.5,0,22.6,5.5,31.6,12.4c9.9,7.6,21.1,16.3,42.8,16.3c21.7,0,32.9-8.6,42.8-16.3
			c9-6.9,16.1-12.4,31.6-12.4c15.5,0,22.6,5.5,31.6,12.4c9.9,7.6,21.1,16.3,42.8,16.3c21.7,0,32.9-8.6,42.8-16.3
			c9-6.9,16.1-12.4,31.6-12.4c15.5,0,22.6,5.5,31.6,12.4c9.9,7.6,21.1,16.3,42.8,16.3c5.1,0,9.2-4.1,9.2-9.3
			C395,195,390.9,190.8,385.8,190.8z"/>
	</g>
</g>
</svg>
